<?xml version="1.0" encoding="UTF-8"?>
<svg id="_圖層_1" data-name="圖層 1" xmlns="http://www.w3.org/2000/svg" width="201.41mm" height="40.57mm" xmlns:xlink="http://www.w3.org/1999/xlink" viewBox="0 0 570.93 115.01">
  <defs>
    <style>
      .cls-1 {
        fill: #006969;
      }

      .cls-1, .cls-2, .cls-3, .cls-4, .cls-5, .cls-6, .cls-7, .cls-8, .cls-9, .cls-10, .cls-11, .cls-12, .cls-13, .cls-14, .cls-15, .cls-16, .cls-17, .cls-18, .cls-19, .cls-20, .cls-21, .cls-22, .cls-23, .cls-24, .cls-25, .cls-26, .cls-27, .cls-28, .cls-29, .cls-30, .cls-31, .cls-32, .cls-33 {
        fill-rule: evenodd;
      }

      .cls-2 {
        fill: #005d69;
      }

      .cls-34 {
        fill: #fff;
      }

      .cls-3 {
        fill: #a0a426;
      }

      .cls-4 {
        fill: url(#_未命名漸層_4-17);
      }

      .cls-5 {
        fill: url(#_未命名漸層_4-16);
      }

      .cls-6 {
        fill: url(#_未命名漸層_4-13);
      }

      .cls-7 {
        fill: url(#_未命名漸層_4-12);
      }

      .cls-8 {
        fill: url(#_未命名漸層_4-19);
      }

      .cls-9 {
        fill: url(#_未命名漸層_4-18);
      }

      .cls-10 {
        fill: url(#_未命名漸層_4-10);
      }

      .cls-11 {
        fill: url(#_未命名漸層_4-11);
      }

      .cls-12 {
        fill: url(#_未命名漸層_4-14);
      }

      .cls-13 {
        fill: url(#_未命名漸層_4-15);
      }

      .cls-14 {
        fill: url(#_未命名漸層_4-20);
      }

      .cls-15 {
        fill: url(#_未命名漸層_4-22);
      }

      .cls-16 {
        fill: url(#_未命名漸層_4-25);
      }

      .cls-17 {
        fill: url(#_未命名漸層_4-26);
      }

      .cls-18 {
        fill: url(#_未命名漸層_4-23);
      }

      .cls-19 {
        fill: url(#_未命名漸層_4-21);
      }

      .cls-20 {
        fill: url(#_未命名漸層_4-28);
      }

      .cls-21 {
        fill: url(#_未命名漸層_4-27);
      }

      .cls-22 {
        fill: url(#_未命名漸層_4-24);
      }

      .cls-23 {
        fill: #496274;
      }

      .cls-24 {
        fill: url(#_未命名漸層_5);
      }

      .cls-25 {
        fill: url(#_未命名漸層_4);
      }

      .cls-26 {
        fill: url(#_未命名漸層_4-7);
      }

      .cls-27 {
        fill: url(#_未命名漸層_4-8);
      }

      .cls-28 {
        fill: url(#_未命名漸層_4-9);
      }

      .cls-29 {
        fill: url(#_未命名漸層_4-3);
      }

      .cls-30 {
        fill: url(#_未命名漸層_4-6);
      }

      .cls-31 {
        fill: url(#_未命名漸層_4-4);
      }

      .cls-32 {
        fill: url(#_未命名漸層_4-5);
      }

      .cls-33 {
        fill: url(#_未命名漸層_4-2);
      }
    </style>
    <linearGradient id="_未命名漸層_5" data-name="未命名漸層 5" x1="73.22" y1="101.29" x2="-5.13" y2="17.21" gradientUnits="userSpaceOnUse">
      <stop offset="0" stop-color="#046537"/>
      <stop offset="1" stop-color="#b5b530"/>
    </linearGradient>
    <linearGradient id="_未命名漸層_4" data-name="未命名漸層 4" x1="64.16" y1="63.5" x2="89.58" y2="63.5" gradientUnits="userSpaceOnUse">
      <stop offset="0" stop-color="#c85a37"/>
      <stop offset="1" stop-color="#d6c939"/>
    </linearGradient>
    <linearGradient id="_未命名漸層_4-2" data-name="未命名漸層 4" x1="77.13" y1="21.94" x2="95.6" y2="21.94" xlink:href="#_未命名漸層_4"/>
    <linearGradient id="_未命名漸層_4-3" data-name="未命名漸層 4" x1="77.43" y1="34.1" x2="94.8" y2="34.1" xlink:href="#_未命名漸層_4"/>
    <linearGradient id="_未命名漸層_4-4" data-name="未命名漸層 4" x1="74.97" y1="39.43" x2="85.21" y2="39.43" xlink:href="#_未命名漸層_4"/>
    <linearGradient id="_未命名漸層_4-5" data-name="未命名漸層 4" x1="73.57" y1="45.51" x2="84.46" y2="45.51" xlink:href="#_未命名漸層_4"/>
    <linearGradient id="_未命名漸層_4-6" data-name="未命名漸層 4" x1="71.88" y1="79.43" x2="84.49" y2="79.43" xlink:href="#_未命名漸層_4"/>
    <linearGradient id="_未命名漸層_4-7" data-name="未命名漸層 4" x1="85.96" y1="48.08" x2="93.75" y2="48.08" xlink:href="#_未命名漸層_4"/>
    <linearGradient id="_未命名漸層_4-8" data-name="未命名漸層 4" x1="62.63" y1="82.15" x2="71.48" y2="82.15" xlink:href="#_未命名漸層_4"/>
    <linearGradient id="_未命名漸層_4-9" data-name="未命名漸層 4" x1="71.17" y1="49.62" x2="75.21" y2="49.62" xlink:href="#_未命名漸層_4"/>
    <linearGradient id="_未命名漸層_4-10" data-name="未命名漸層 4" x1="66.36" y1="80.51" x2="74.88" y2="80.51" xlink:href="#_未命名漸層_4"/>
    <linearGradient id="_未命名漸層_4-11" data-name="未命名漸層 4" x1="87.73" y1="64.1" x2="92.85" y2="64.1" xlink:href="#_未命名漸層_4"/>
    <linearGradient id="_未命名漸層_4-12" data-name="未命名漸層 4" x1="84.85" y1="52.81" x2="91.91" y2="52.81" xlink:href="#_未命名漸層_4"/>
    <linearGradient id="_未命名漸層_4-13" data-name="未命名漸層 4" x1="86.43" y1="30.01" x2="91.24" y2="30.01" xlink:href="#_未命名漸層_4"/>
    <linearGradient id="_未命名漸層_4-14" data-name="未命名漸層 4" x1="80.89" y1="78.04" x2="87.23" y2="78.04" xlink:href="#_未命名漸層_4"/>
    <linearGradient id="_未命名漸層_4-15" data-name="未命名漸層 4" x1="78.04" y1="50.6" x2="84.63" y2="50.6" xlink:href="#_未命名漸層_4"/>
    <linearGradient id="_未命名漸層_4-16" data-name="未命名漸層 4" x1="84.02" y1="46.69" x2="87.85" y2="46.69" xlink:href="#_未命名漸層_4"/>
    <linearGradient id="_未命名漸層_4-17" data-name="未命名漸層 4" x1="89.42" y1="55.56" x2="92.9" y2="55.56" xlink:href="#_未命名漸層_4"/>
    <linearGradient id="_未命名漸層_4-18" data-name="未命名漸層 4" x1="76.57" y1="28.37" x2="79.27" y2="28.37" xlink:href="#_未命名漸層_4"/>
    <linearGradient id="_未命名漸層_4-19" data-name="未命名漸層 4" x1="91.31" y1="76.16" x2="93.73" y2="76.16" xlink:href="#_未命名漸層_4"/>
    <linearGradient id="_未命名漸層_4-20" data-name="未命名漸層 4" x1="85.4" y1="12.05" x2="86.61" y2="12.05" xlink:href="#_未命名漸層_4"/>
    <linearGradient id="_未命名漸層_4-21" data-name="未命名漸層 4" x1="87.49" y1="40.52" x2="92.26" y2="40.52" xlink:href="#_未命名漸層_4"/>
    <linearGradient id="_未命名漸層_4-22" data-name="未命名漸層 4" x1="88.8" y1="33.47" x2="91.4" y2="33.47" xlink:href="#_未命名漸層_4"/>
    <linearGradient id="_未命名漸層_4-23" data-name="未命名漸層 4" x1="88.71" y1="59.04" x2="91.24" y2="59.04" xlink:href="#_未命名漸層_4"/>
    <linearGradient id="_未命名漸層_4-24" data-name="未命名漸層 4" x1="89.01" y1="44.45" x2="91.27" y2="44.45" xlink:href="#_未命名漸層_4"/>
    <linearGradient id="_未命名漸層_4-25" data-name="未命名漸層 4" x1="77.58" y1="83.4" x2="82.35" y2="83.4" xlink:href="#_未命名漸層_4"/>
    <linearGradient id="_未命名漸層_4-26" data-name="未命名漸層 4" x1="89.56" y1="71.3" x2="92" y2="71.3" xlink:href="#_未命名漸層_4"/>
    <linearGradient id="_未命名漸層_4-27" data-name="未命名漸層 4" x1="72.51" y1="85.45" x2="75.43" y2="85.45" xlink:href="#_未命名漸層_4"/>
    <linearGradient id="_未命名漸層_4-28" data-name="未命名漸層 4" x1="90.13" y1="74.21" x2="91.43" y2="74.21" xlink:href="#_未命名漸層_4"/>
  </defs>
  <g>
    <path class="cls-34" d="M.23,114.63c-.19-.09-.23-.15-.23-.42,0-.68.05-1.41.06-1.61.01-.19.05-.32.15-.32.11,0,.12.11.12.21,0,.16.05.42.11.63.27.91,1,1.24,1.76,1.24,1.11,0,1.65-.75,1.65-1.4,0-.61-.19-1.17-1.21-1.97l-.57-.44c-1.35-1.06-1.82-1.92-1.82-2.92,0-1.35,1.13-2.32,2.84-2.32.8,0,1.32.12,1.64.21.11.03.17.06.17.15,0,.16-.05.52-.05,1.48,0,.27-.04.37-.14.37-.08,0-.12-.08-.12-.22,0-.11-.06-.5-.32-.81-.19-.23-.54-.6-1.34-.6-.91,0-1.47.53-1.47,1.27,0,.57.28,1,1.31,1.78l.35.26c1.49,1.12,2.02,1.97,2.02,3.14,0,.72-.27,1.57-1.16,2.14-.62.39-1.3.5-1.96.5-.71,0-1.27-.08-1.8-.32Z"/>
    <path class="cls-34" d="M10.06,109.89c0-1.59,0-1.88,0-2.21-.03-.36-.12-.47-.47-.57-.08-.03-.27-.04-.43-.04-.11,0-.19-.04-.19-.11,0-.07.08-.1.25-.1.57,0,1.25.03,1.56.03.35,0,2.74,0,2.95,0,.2-.01.37-.05.46-.06.06-.01.12-.05.17-.05.06,0,.08.05.08.1,0,.07-.06.19-.09.68,0,.11-.04.57-.06.69,0,.05-.04.17-.12.17-.08,0-.09-.05-.09-.13,0-.08-.01-.26-.08-.38-.08-.19-.17-.33-.71-.39-.19-.02-1.48-.05-1.7-.05-.05,0-.07.04-.07.1v2.59c0,.06,0,.11.07.11.25,0,1.65,0,1.9-.03.26-.02.42-.05.51-.16.09-.08.12-.14.17-.14.05,0,.09.05.09.11s-.03.23-.09.77c-.02.21-.05.63-.05.7,0,.09,0,.23-.11.23-.07,0-.1-.04-.1-.08-.01-.11-.01-.25-.04-.39-.06-.21-.2-.37-.61-.4-.19-.03-1.43-.05-1.7-.05-.05,0-.06.05-.06.11v.84c0,.35-.01,1.24,0,1.55.02.71.35.88,1.47.88.28,0,.74-.01,1.02-.14.27-.12.4-.35.47-.77.03-.11.05-.16.12-.16.08,0,.1.13.1.24,0,.23-.08.95-.15,1.16-.08.27-.17.27-.58.27-.81,0-1.47-.01-1.99-.04-.53-.01-.94-.03-1.26-.03-.12,0-.36.01-.62.01-.26.01-.53.02-.75.02-.13,0-.21-.04-.21-.11,0-.05.04-.11.17-.11.16,0,.28-.01.38-.04.22-.05.28-.25.32-.55.05-.44.05-1.27.05-2.23v-1.85Z"/>
    <path class="cls-34" d="M20.09,112.14c-.06,0-.08.01-.1.08l-.58,1.4c-.11.26-.16.52-.16.64,0,.18.1.29.43.29h.16c.13,0,.16.05.16.11,0,.09-.06.11-.17.11-.36,0-.86-.04-1.21-.04-.11,0-.69.04-1.25.04-.14,0-.2-.02-.2-.11,0-.06.04-.11.12-.11.1,0,.22-.01.32-.01.49-.07.68-.39.9-.92l2.83-6.59c.12-.3.21-.42.32-.42.16,0,.21.1.32.33.26.58,2.07,4.87,2.75,6.45.42.95.73,1.08.93,1.12.16.02.28.04.41.04.1,0,.15.04.15.11,0,.09-.06.11-.46.11s-1.17,0-2.08-.02c-.2-.01-.32-.01-.32-.09,0-.06.03-.1.14-.11.08-.01.15-.11.1-.23l-.84-2.1c-.03-.06-.06-.08-.11-.08h-2.55ZM22.41,111.56s.06-.02.05-.06l-1.02-2.66s-.02-.1-.05-.1c-.04,0-.05.06-.06.1l-1.04,2.65s0,.07.04.07h2.09Z"/>
    <path class="cls-34" d="M29.17,114.64c-.17-.08-.21-.12-.21-.36,0-.57.05-1.22.06-1.39,0-.16.05-.27.13-.27.1,0,.11.1.11.17,0,.13.04.35.1.54.23.77,1.05,1.04,1.73,1.04.93,0,1.5-.59,1.5-1.33,0-.46-.11-.91-1.07-1.48l-.63-.37c-1.28-.75-1.7-1.45-1.7-2.38,0-1.28,1.23-2.1,2.73-2.1.7,0,1.26.1,1.54.17.1.02.15.06.15.13,0,.14-.04.43-.04,1.26,0,.22-.05.33-.14.33-.08,0-.11-.06-.11-.19,0-.1-.05-.42-.28-.69-.16-.19-.5-.49-1.2-.49-.78,0-1.48.41-1.48,1.12,0,.47.17.84,1.14,1.38l.45.24c1.43.79,1.87,1.59,1.87,2.54,0,.78-.29,1.4-1.08,1.96-.52.37-1.24.43-1.81.43-.63,0-1.29-.06-1.76-.27Z"/>
    <path class="cls-34" d="M37.71,110.81c0-1.79,1.25-4.1,4.54-4.1,2.73,0,4.43,1.51,4.43,3.91s-1.75,4.29-4.54,4.29c-3.15,0-4.43-2.24-4.43-4.1ZM45.07,111.01c0-2.32-1.39-3.74-3.14-3.74-1.2,0-2.62.64-2.62,3.22,0,2.16,1.23,3.86,3.28,3.86.76,0,2.49-.36,2.49-3.34Z"/>
    <path class="cls-34" d="M51.85,113.35c.03.81.16,1.06.37,1.13.19.06.39.07.57.07.12,0,.19.05.19.11,0,.09-.1.11-.25.11-.7,0-1.21-.04-1.4-.04-.1,0-.62.04-1.17.04-.15,0-.25,0-.25-.11,0-.06.08-.11.17-.11.15,0,.35-.01.49-.05.28-.08.32-.35.33-1.27l.1-6.21c0-.21.07-.36.18-.36.14,0,.28.16.47.35.14.14,1.76,1.8,3.34,3.34.74.73,2.18,2.2,2.34,2.35h.05l-.11-4.65c-.01-.64-.11-.83-.37-.93-.16-.06-.42-.06-.57-.06-.14,0-.17-.05-.17-.11,0-.08.11-.1.27-.1.57,0,1.15.03,1.38.03.12,0,.53-.03,1.06-.03.15,0,.24.01.24.1,0,.06-.06.11-.18.11-.11,0-.2,0-.33.04-.3.08-.39.27-.39.86l-.12,6.6c0,.23-.09.33-.17.33-.19,0-.33-.11-.44-.22-.68-.63-2.03-1.92-3.17-3.01-1.18-1.13-2.33-2.4-2.54-2.59h-.04l.12,4.27Z"/>
    <path class="cls-34" d="M69.15,107.88c-.25-.58-.41-.68-.8-.77-.16-.04-.33-.04-.42-.04-.1,0-.12-.05-.12-.11,0-.08.11-.1.27-.1.58,0,1.19.03,1.58.03.27,0,.84-.03,1.38-.03.14,0,.26.03.26.1,0,.08-.08.11-.17.11-.17,0-.33.01-.42.08-.08.05-.11.11-.11.21,0,.14.1.42.25.79l1.82,4.69h.04c.46-1.08,1.86-4.46,2.12-5.15.05-.13.1-.29.1-.38,0-.11-.05-.15-.15-.19-.12-.04-.3-.05-.43-.05-.1,0-.19-.04-.19-.11,0-.07.1-.1.31-.1.54,0,1.02.03,1.16.03.19,0,.69-.03,1.02-.03.13,0,.22.03.22.1,0,.08-.06.11-.17.11s-.35,0-.53.12c-.13.1-.28.26-.57.93-.43.98-.71,1.55-1.31,2.83-.69,1.53-1.19,2.67-1.44,3.2-.27.6-.37.76-.52.76s-.23-.14-.44-.63l-2.73-6.4Z"/>
    <path class="cls-34" d="M80.49,109.89c0-1.59,0-1.88,0-2.21-.03-.36-.14-.48-.37-.56-.12-.04-.26-.05-.39-.05-.11,0-.17-.02-.17-.12,0-.06.09-.08.26-.08.41,0,1.14.03,1.45.03.27,0,.97-.03,1.39-.03.14,0,.22.03.22.08,0,.1-.06.12-.17.12s-.19.01-.32.04c-.3.05-.38.19-.41.57-.02.33-.02.62-.02,2.21v1.85c0,1.01,0,1.85.05,2.29.04.28.11.44.43.49.15.02.39.04.55.04.12,0,.17.06.17.11,0,.08-.08.11-.21.11-.71,0-1.45-.04-1.75-.04-.25,0-.98.04-1.42.04-.13,0-.21-.04-.21-.11,0-.05.04-.11.17-.11.16,0,.28-.01.38-.04.22-.05.28-.2.32-.5.05-.43.05-1.27.05-2.28v-1.85Z"/>
    <path class="cls-34" d="M89.43,111.73c0,1.35,0,2.01.23,2.2.18.16.6.22,1.44.22.58,0,1,0,1.27-.29.14-.14.25-.43.27-.63,0-.1.04-.16.12-.16.08,0,.1.11.1.23s-.08.9-.16,1.21c-.07.23-.12.28-.69.28-.77,0-1.4-.01-1.95-.04-.54-.01-1-.03-1.44-.03-.12,0-.36.01-.62.01-.26.01-.53.02-.75.02-.13,0-.21-.04-.21-.11,0-.05.04-.11.17-.11.16,0,.28-.01.38-.04.22-.05.28-.25.32-.55.05-.44.05-1.27.05-2.23v-1.85c0-1.59,0-1.88,0-2.21-.03-.36-.12-.47-.47-.57-.08-.03-.22-.04-.36-.04-.12,0-.18-.04-.18-.11,0-.07.07-.1.23-.1.51,0,1.2.03,1.49.03.26,0,1.15-.03,1.56-.03.16,0,.23.03.23.1,0,.08-.06.11-.19.11-.12,0-.3.01-.42.04-.3.05-.38.19-.41.57-.02.33-.02.62-.02,2.21v1.85Z"/>
    <path class="cls-34" d="M98.7,111.73c0,1.35,0,2.01.23,2.2.18.16.6.22,1.44.22.58,0,1,0,1.27-.29.14-.14.25-.43.27-.63,0-.1.04-.16.12-.16.08,0,.1.11.1.23s-.08.9-.16,1.21c-.07.23-.12.28-.69.28-.77,0-1.4-.01-1.95-.04-.54-.01-1-.03-1.44-.03-.12,0-.36.01-.62.01-.26.01-.53.02-.75.02-.13,0-.21-.04-.21-.11,0-.05.04-.11.17-.11.16,0,.28-.01.38-.04.22-.05.28-.25.32-.55.05-.44.05-1.27.05-2.23v-1.85c0-1.59,0-1.88,0-2.21-.03-.36-.12-.47-.47-.57-.08-.03-.22-.04-.36-.04-.12,0-.18-.04-.18-.11,0-.07.07-.1.23-.1.51,0,1.2.03,1.49.03.26,0,1.15-.03,1.56-.03.16,0,.23.03.23.1,0,.08-.06.11-.19.11-.12,0-.3.01-.42.04-.3.05-.38.19-.41.57-.02.33-.02.62-.02,2.21v1.85Z"/>
    <path class="cls-34" d="M107.23,112.14c-.06,0-.07.01-.1.08l-.58,1.4c-.11.26-.16.52-.16.64,0,.18.1.29.43.29h.16c.13,0,.16.05.16.11,0,.09-.06.11-.17.11-.36,0-.86-.04-1.21-.04-.11,0-.69.04-1.25.04-.14,0-.2-.02-.2-.11,0-.06.04-.11.12-.11.1,0,.22-.01.32-.01.49-.07.68-.39.9-.92l2.83-6.59c.12-.3.21-.42.32-.42.16,0,.21.1.32.33.26.58,2.07,4.87,2.76,6.45.42.95.73,1.08.92,1.12.16.02.28.04.41.04.1,0,.15.04.15.11,0,.09-.06.11-.46.11s-1.17,0-2.08-.02c-.2-.01-.32-.01-.32-.09,0-.06.03-.1.14-.11.07-.01.15-.11.1-.23l-.84-2.1c-.03-.06-.06-.08-.11-.08h-2.55ZM109.54,111.56s.06-.02.05-.06l-1.02-2.66s-.02-.1-.05-.1c-.04,0-.05.06-.06.1l-1.04,2.65s0,.07.04.07h2.09Z"/>
    <path class="cls-34" d="M123.63,114.07c0,.28,0,.3-.14.37-.73.36-1.8.47-2.65.47-2.66,0-5.01-1.21-5.01-4.1,0-1.67.9-2.85,1.9-3.42,1.03-.61,2.01-.68,2.92-.68.75,0,1.7.12,1.92.17.22.04.6.1.86.11.12,0,.15.05.15.12,0,.12-.08.41-.08,1.73,0,.16-.06.23-.15.23-.08,0-.1-.05-.11-.14-.03-.23-.09-.57-.37-.86-.32-.33-1.13-.8-2.35-.8-.59,0-1.34,0-2.09.62-.6.49-1,1.27-1,2.55,0,2.25,1.45,3.89,3.77,3.89.28,0,.5,0,.77-.11.16-.07.21-.19.21-.37v-.96c0-.52,0-.91-.01-1.23-.01-.36-.12-.47-.47-.57-.08-.03-.27-.04-.42-.04-.1,0-.17-.05-.17-.11,0-.08.08-.1.23-.1.57,0,1.34.03,1.66.03.35,0,.91-.03,1.27-.03.15,0,.22.01.22.1,0,.06-.06.11-.14.11-.08,0-.17.01-.3.04-.29.05-.4.19-.42.57-.01.32-.01.74-.01,1.25v1.16Z"/>
    <path class="cls-34" d="M129.13,109.89c0-1.59,0-1.88-.01-2.21-.03-.36-.12-.47-.47-.57-.08-.03-.27-.04-.43-.04-.11,0-.19-.04-.19-.11,0-.07.08-.1.25-.1.57,0,1.25.03,1.56.03.35,0,2.74,0,2.95,0,.2-.01.37-.05.46-.06.06-.01.12-.05.17-.05.06,0,.08.05.08.1,0,.07-.06.19-.09.68,0,.11-.04.57-.06.69,0,.05-.04.17-.12.17-.08,0-.09-.05-.09-.13,0-.08-.01-.26-.07-.38-.09-.19-.17-.33-.72-.39-.19-.02-1.48-.05-1.7-.05-.05,0-.07.04-.07.1v2.59c0,.06,0,.11.07.11.25,0,1.65,0,1.9-.03.26-.02.42-.05.52-.16.08-.08.12-.14.17-.14.05,0,.09.05.09.11s-.03.23-.09.77c-.02.21-.05.63-.05.7,0,.09,0,.23-.11.23-.07,0-.1-.04-.1-.08-.01-.11-.01-.25-.04-.39-.06-.21-.2-.37-.61-.4-.19-.03-1.43-.05-1.7-.05-.05,0-.06.05-.06.11v.84c0,.35-.01,1.24,0,1.55.02.71.35.88,1.47.88.28,0,.74-.01,1.02-.14.27-.12.39-.35.46-.77.03-.11.05-.16.12-.16.08,0,.1.13.1.24,0,.23-.08.95-.15,1.16-.08.27-.17.27-.58.27-.81,0-1.47-.01-1.99-.04-.53-.01-.94-.03-1.26-.03-.12,0-.36.01-.62.01-.26.01-.53.02-.75.02-.13,0-.21-.04-.21-.11,0-.05.04-.11.17-.11.16,0,.28-.01.38-.04.22-.05.28-.25.32-.55.05-.44.05-1.27.05-2.23v-1.85Z"/>
  </g>
  <g>
    <g>
      <g>
        <path class="cls-1" d="M107.2,73.72c0,.73.54,1.3,1.24,1.31.14,0,.43-.34.42-.49-.06-.6-.58-1.25-1.12-1.41-.21-.06-.48.1-.51.32-.01.09-.02.18-.03.27"/>
        <g>
          <path class="cls-1" d="M98.64,46.95c0,.09,0,.18,0,.28-.02.6,0,1.19.46,1.67.14.15.05.46-.16.6-.09.06-.27.11-.36.06-.33-.17-.59-.43-.74-.79-.12-.3-.27-.59-.44-.86-.19-.31-.4-.61-.64-.89-.18-.22-.52-.15-.7.1-.14.21-.19.43-.11.65.18.48.45.89.82,1.26.45.45.94.87,1.25,1.45.15.27.41.55.77.53.78-.04.87.53.98,1.07.03.15-.05.36-.15.49-.12.16-.62.14-.77,0-.1-.09-.16-.22-.25-.32-.38-.39-.76-.79-1.18-1.15-.1-.09-.38-.07-.5.01-.11.08-.2.34-.16.47.26.74.6,1.44,1.21,1.97.34.3.67.63.99.96.09.09.2.27.17.36-.21.49-.13.97,0,1.46.01.04-.11.14-.18.17-.08.03-.2.05-.27.02-.66-.39-1.35-.74-1.63-1.56-.31-.88-1.01-1.52-1.53-2.27-.13-.18-.36-.35-.59-.19-.17.12-.36.33-.39.52-.11.67.1,1.29.56,1.78.92.99,1.98,1.78,3.35,2.02.62.11.91.57,1.24,1,.07.09.08.28.03.39-.16.35-.21.68-.04,1.05.04.1-.11.33-.23.45-.07.07-.29.11-.36.06-.22-.16-.43-.35-.58-.57-.29-.41-.54-.85-.83-1.26-.27-.38-.79-.39-1.05-.01-.13.19-.23.39-.33.6-.19.43-.13.67.24.96.43.34.87.67,1.26,1.05.32.3.65.49,1.11.43.17-.02.39-.03.44.19.03.11-.07.27-.15.37-.11.14-.26.24-.39.37-.14.15-.08.32.13.42.2.09.43.15.61.28.27.21.28.67,0,.82-.4.22-.63.49-.68.95-.01.16-.33.18-.45.05-.03-.03-.08-.06-.1-.1-.32-1.1-1.27-1.75-1.85-2.67-.27-.42-.55-.84-.84-1.25-.21-.29-.45-.58-.7-.84-.2-.22-.46-.34-.74-.21-.24.11-.25.36-.26.59-.03.59.13,1.08.61,1.46.4.31.85.58,1.16.96.47.57,1.21.79,1.63,1.44.37.57.93,1.01,1.4,1.51.06.06.11.15.16.22.15.23.02.59-.25.65-.18.04-.36.03-.54.06-.04,0-.11.06-.11.08.02.08.03.18.09.23.31.28.67.28,1.03.14.21-.08.32-.08.37.18.15.76.33,1.51.49,2.27.04.18.05.36.05.54,0,.24-.2.41-.44.42-.5.01-.9-.21-1.24-.52-.58-.52-1.17-1.04-1.5-1.77-.06-.12-.13-.24-.22-.34-.14-.16-.34-.16-.49-.06-.1.06-.21.25-.19.34.23.64.44,1.3.77,1.89.21.38.6.67,1.08.8.69.19,1.45.29,1.9.97.43.04.8.48,1.3.19.11-.06.33.08.51.09.05,0,.16-.15.14-.19-.08-.26-.2-.51-.29-.76-.13-.34-.33-.69.15-.94.12-.06.13-.14.02-.2-.42-.21-.46-.79-.97-.92-.25-.07-.24-.36-.17-.59.08-.25.24-.32.63-.27.43.05.79-.25.63-.61-.25-.58-.16-1.18-.17-1.77,0-.43-.08-.78-.39-1.12-.6-.65-.62-1.11-.21-1.85.11-.2.23-.4.38-.57.21-.26.19-.48-.03-.73-.14-.17-.24-.38-.36-.58-.15-.25-.2-.49-.05-.78.21-.4.08-.78-.08-1.18-.24-.59-.42-1.2-.37-1.87.04-.54.01-.54.69-.75.09-.03.19-.03.26-.08.47-.36.94-.73,1.41-1.09.1-.56.52-.77.99-.98.31-.14.54-.48.79-.75.31-.33.34-.74.29-1.16-.04-.31-.24-.53-.51-.59-.35-.07-.73-.04-1.09-.04-.08,0-.2.06-.23.12-.23.44-.46.89-.66,1.35-.1.25.32.55.06.75-.27.22-.65.31-.98.45-.04.02-.1.06-.12.04-.11-.06-.27-.11-.31-.2-.51-1.35-.46-1.58.58-2.68.19-.2.38-.4.56-.61.22-.27.25-.57.08-.75-.23-.24-.5-.17-.77-.1-.59.15-.87.62-1.1,1.14-.02.04-.13.04-.21.04-.03,0-.08-.05-.1-.09-.06-.12-.15-.26-.14-.38.11-.81.24-1.62.37-2.43.04-.22.09-.45.12-.67.11-.86-.38-1.38-1.04-1.78-.22-.14-.6.07-.62.34-.03.37-.04.73-.06,1.1,0,0,.01,0,.02,0"/>
          <path class="cls-1" d="M104.8,63.59c-.03-.18-.06-.36-.1-.53-.05-.22-.33-.36-.53-.27-.87.42-1.63,1-2.26,1.73-.06.07-.05.26,0,.35.13.24.31.45.44.68.47.83.65.87,1.29.26.23-.22.47-.44.66-.7.33-.45.55-.95.51-1.53"/>
          <path class="cls-1" d="M105.25,66.49c1.16-.14,2.22-.71,3.14-1.58.15-.15.24-.38.34-.58.09-.17.02-.39-.14-.46-.71-.31-1.26-.2-1.7.35-.06.07-.12.14-.16.22-.4.84-1.09,1.31-1.98,1.53-.09.02-.13.2-.2.3.11.07.21.14.32.2.04.02.09,0,.13,0h.24"/>
          <path class="cls-1" d="M103.76,60.71c.81.11,1.27-.63,1.77-1.26.18-.23.27-.57.34-.87.08-.31-.32-.61-.61-.49-.29.13-.58.26-.85.42-.15.09-.36.23-.37.37-.08.7-.65,1.06-1.04,1.53-.02.03-.05.11-.03.13.06.05.13.12.21.13.13.03.27.02.59.03"/>
          <path class="cls-1" d="M102.69,56.26c-.29,0-.59.24-.66.58-.07.36-.04.73-.35,1-.16.14-.18.32,0,.45.1.07.25.14.36.13.17-.02.34-.12.51-.17.75-.26,1-.69.82-1.43-.07-.28-.41-.55-.7-.56"/>
          <path class="cls-1" d="M94.82,64.32c.01.13,0,.24.03.3.38.62.91,1.12,1.51,1.54.07.05.17.04.26.06.15.03.39-.2.35-.33-.21-.66-.64-1.19-1.05-1.72-.2-.27-.57-.24-.88-.13-.1.04-.16.2-.21.28"/>
          <path class="cls-1" d="M96.15,73.27c.53-.09.77-.63.44-1.01-.12-.14-.24-.27-.38-.38-.36-.27-.73-.53-1.1-.78-.05-.03-.18-.03-.22.01-.05.06-.06.16-.08.25,0,.04,0,.09.02.13.35.57.71,1.15,1.07,1.71.03.05.16.05.24.07"/>
          <path class="cls-1" d="M104.38,70.37c.81-.22,1.42-.71,1.7-1.55.03-.09-.03-.28-.11-.34-.09-.07-.28-.09-.37-.03-.23.14-.46.3-.63.5-.32.38-.59.8-.88,1.2-.02.02-.01.1,0,.11.08.04.16.07.29.11"/>
          <path class="cls-2" d="M95.15,79.24c.06.06.1.16.17.19.32.1.59-.02.79-.34.09-.15-.03-.38-.21-.4-.36-.03-.64.11-.76.42-.02.04,0,.09,0,.13"/>
          <path class="cls-2" d="M96.11,84.05s-.08,0-.1.02c-.24.37-.49.73-.72,1.1-.07.11-.12.25.04.32.06.03.18-.02.24-.07.36-.29.55-.68.63-1.13.01-.07-.06-.16-.09-.24"/>
        </g>
      </g>
      <g>
        <path class="cls-1" d="M116.48,49.59c.1.22.51.42.7.3.15-.09.25-.25.39-.36.55-.46.73-.41,1.01.33.08.21.2.34.39.26.42-.17.83-.39,1.23-.61.08-.04.17-.12.19-.19.05-.17.1-.35.07-.51-.02-.09-.18-.21-.3-.23-.27-.05-.55-.05-.82-.06-.37,0-.74,0-1.1,0-.26,0-.42-.11-.5-.37-.23-.75-.41-1.51-.17-2.29.07-.24-.01-.31-.24-.36-.27-.05-.53-.12-.79-.21-.17-.06-.33-.17-.5-.24-.46-.18-1-.11-1.43-.44-.36-.28-.72-.56-1.1-.82-.62-.42-1.1-.95-1.45-1.62-.15-.28-.33-.54-.51-.81-.25-.4-.24-.51.1-.97.08-.11.22-.21.23-.33.01-.1-.09-.28-.19-.31-.16-.05-.37-.06-.54-.03-.31.07-.64.14-.91.29-.54.31-1.08.43-1.68.23-.12-.04-.27,0-.41.02-.22.02-.35.21-.36.5-.01.29.11.51.3.55.09.02.18.04.27.04,1.09-.08,1.78.57,2.41,1.32.26.31.49.66.78.95.3.31.53.79,1.11.61.44.33.89.64,1.31.99.38.33.71.71,1.07,1.07.59.58,1.17,1.15,1.96,1.49.56.24.58.85.1,1.21-.18.14-.4.22-.58.35-.05.03-.04.15-.05.24"/>
        <path class="cls-1" d="M117.13,26.91c.06.24.15.63.25,1.03.1.39.22.79.31,1.18.02.07-.05.18-.11.23-.06.04-.18.07-.24.04-.15-.09-.32-.19-.42-.33-.28-.37-.69-.43-1.09-.53-.27-.07-.54.12-.58.41-.04.28-.04.57.16.78.32.32.66.63,1.03.89.28.21.47.43.48.78,0,.04,0,.09.01.14.17.66.34.93.52.82.34-.2.26-.55.32-.85.01-.09.06-.18.12-.23.05-.04.16-.04.23-.04.03,0,.1.06.09.09-.06.31-.14.61-.19.91-.04.32.14.53.46.55,1.24.08,2.55-1.1,2.59-2.32,0-.04,0-.1-.02-.13-.08-.1-.16-.24-.26-.27-.11-.04-.29-.01-.38.06-.13.11-.2.3-.32.43-.31.34-.63.67-.97.97-.08.07-.28.11-.37.06-.1-.05-.15-.22-.18-.35-.03-.13-.05-.29,0-.41.21-.59.13-1.18-.07-1.72-.22-.6-.18-1.13,0-1.73.13-.42.1-.9.08-1.36-.01-.41-.37-.72-.71-.7-.34.02-.64.33-.69.74-.02.23-.03.46-.05.86"/>
        <path class="cls-1" d="M118,38.74c.03.11.01-.07-.07-.22-.04-.08-.22-.1-.33-.1-.07,0-.15.09-.21.16-.21.22-.27.59-.69.57-.45-.01-.9.05-1.3-.27-.38-.31-.86-.51-1.18-.92-.08-.11-.19-.19-.3-.28-.18-.16-.4-.22-.64-.13-.18.06-.33.49-.2.72.15.27.34.55.58.73.32.24.72.39,1.08.59.43.23.91.36,1.22.82.2.3.58.17.88.05.36-.14.35.11.4.33.01.05.09.09.14.14.34-.59.75-1.15.63-2.18"/>
        <path class="cls-1" d="M110.8,53.97c-.02.24.06.53.31.77.55.55,1.11,1.09,1.63,1.66.35.37.76.47,1.24.42.19-.02.38-.09.41-.29.02-.16,0-.43-.09-.49-.59-.37-.92-1-1.43-1.46-.4-.37-.77-.77-1.17-1.15-.17-.17-.39-.25-.63-.14-.25.11-.24.36-.27.68"/>
        <path class="cls-1" d="M113.9,60.94c.03-.32,0-.64-.25-.89-.72-.7-1.49-1.33-2.38-1.79-.36-.19-.74-.02-.91.34-.12.26-.07.58.14.75.1.08.21.17.33.23.9.44,1.73.99,2.44,1.71.1.1.38.19.46.12.12-.08.16-.31.18-.48"/>
        <path class="cls-1" d="M117.93,35.17c.07-.05.16-.09.22-.15.19-.24.23-.56.07-.76-.28-.36-.57-.7-.86-1.05-.05-.06-.15-.11-.23-.11-.58,0-1.03-.34-1.54-.53-.14-.05-.39-.01-.49.09-.19.18-.35.42-.24.72.13.35.33.64.69.8.75.32,1.5.65,2.25.98.03.01.08,0,.13,0"/>
        <path class="cls-1" d="M125.59,61.52c.09-.02.2,0,.26-.05.71-.56,1.43-1.12,1.79-2,.05-.12.09-.26.08-.39-.02-.17-.05-.37-.15-.49-.14-.17-.32-.06-.47.05-.19.12-.36.31-.56.36-.38.09-.64.32-.9.57-.42.4-.76.91-1.41,1-.03,0-.06.07-.06.1.02.08.05.21.09.22.41.09.75.31,1.07.55.07.05.17.06.25.08"/>
        <path class="cls-1" d="M114.74,52.16c.3-.03.45-.01.56-.08.1-.05.22-.23.19-.3-.09-.25-.22-.5-.37-.72-.35-.47-.71-.93-1.11-1.36-.21-.22-.5-.38-.78-.52-.3-.16-.81.23-.72.56.19.7.4,1.41,1.06,1.82.41.25.74.72,1.16.6"/>
        <path class="cls-1" d="M116.36,36.67c-.13-.48-.58-.56-.93-.74-.39-.2-.71-.42-.75-.89,0-.09-.06-.17-.09-.26-.17-.69-.7-.92-1.31-1.02-.29-.05-.54.1-.7.33-.16.24-.17.53-.01.78.2.31.47.55.83.68.38.14.85.25,1.09.53.53.63,1.2.59,1.88.57h0Z"/>
        <path class="cls-1" d="M111.36,71.22c0,.57.09.74.51.79.39.04.71.19,1.03.36.31.17.53.02.76-.1.24-.14.33-.51.14-.71-.37-.4-.75-.8-1.17-1.15-.44-.35-.99-.15-1.18.4-.06.17-.06.36-.07.41"/>
        <path class="cls-1" d="M111.79,46.84c.06.12.12.4.28.6.64.79,1.46,1.34,2.44,1.63.1.03.29-.04.35-.13.05-.08.02-.27-.04-.35-.3-.4-.62-.77-.94-1.15-.09-.1-.17-.21-.28-.28-.42-.26-.85-.52-1.28-.76-.15-.09-.53.15-.53.46"/>
        <path class="cls-1" d="M126.06,45.24c-.5,0-.88.14-1.06.45-.29.5-.71.81-1.18,1.08-.04.02-.06.07-.09.1-.16.18-.22.39-.13.63.06.16.4.26.6.16.82-.4,1.59-.87,2.2-1.56.13-.14.22-.33.09-.49-.13-.16-.33-.28-.42-.37"/>
        <path class="cls-1" d="M121.21,45.26c.53.03,1-.08,1.34-.54.24-.32.25-.8-.02-1.14-.1-.12-.34-.26-.46-.22-.61.2-1.15.55-1.56,1.05-.1.12-.17.36-.12.49.05.14.25.24.41.31.12.05.27.03.4.04"/>
        <path class="cls-1" d="M115.1,42.61s.08-.06.1-.1c.02-.04.02-.11,0-.13-.3-.34-.58-.71-.91-1.01-.33-.3-.71-.54-.81-1.03-.02-.11-.16-.25-.27-.29-.16-.05-.36-.07-.52-.02-.09.03-.18.2-.2.33-.08.46.13.82.49,1.05.65.41,1.34.78,2.01,1.16.03.02.08.02.11.03"/>
        <path class="cls-1" d="M121.09,40.63c.08.09.17.25.31.33.09.06.3.07.36,0,.4-.37.79-.74,1.14-1.15.08-.1.06-.38-.02-.49-.08-.12-.31-.21-.46-.2-.81.06-1.25.55-1.34,1.5"/>
        <path class="cls-1" d="M125.16,63.15c.03.23.01.42.08.58.04.1.22.21.31.2.22-.04.44-.13.63-.25.45-.27.57-.83.27-1.31-.12-.2-.32-.37-.56-.31-.2.05-.44.18-.54.35-.13.22-.14.51-.19.74"/>
        <path class="cls-1" d="M123.51,63.73c-.29.17-.61.33-.88.54-.25.19-.26.6-.06.85.17.21.44.26.72.12.23-.12.47-.26.66-.44.23-.21.2-.61-.05-.84-.09-.09-.22-.13-.39-.23"/>
        <path class="cls-1" d="M115.66,42.87s.02.1.04.13c.51.43,1.03.85,1.55,1.26.05.04.17.02.24-.02.47-.24.55-.66.15-.92-.56-.37-1.16-.68-1.87-.52-.04,0-.07.05-.1.08"/>
        <path class="cls-1" d="M119.08,36.1c.12.1.24.25.31.23.55-.13,1-.38,1.2-.96.07-.19.1-.37-.07-.48-.14-.09-.32-.13-.49-.16-.08-.01-.18.04-.25.08-.45.3-.58.77-.71,1.28"/>
        <path class="cls-1" d="M130.51,67.84c-.4-.03-.67.18-.85.52-.12.22-.03.52.19.73.19.18.39.17.61.05.34-.17.6-.38.57-.82-.02-.28-.22-.49-.53-.48"/>
        <path class="cls-1" d="M126.82,68.18c-.11,0-.22-.04-.28,0-.41.28-.81.58-1.21.88-.05.04-.06.18-.04.25.03.07.13.17.2.16.67-.05,1.24-.3,1.57-.92.03-.06.01-.18-.03-.25-.04-.07-.15-.1-.21-.13"/>
        <path class="cls-1" d="M122.78,50.45c-.14.05-.4.11-.63.21-.22.1-.28.39-.17.57.13.2.31.37.55.28.29-.11.56-.28.81-.46.09-.06.15-.24.12-.35-.03-.1-.17-.17-.29-.22-.07-.04-.17-.02-.39-.04"/>
        <path class="cls-1" d="M118.75,43.1c.26-.11.49-.15.65-.29.11-.09.17-.3.18-.46,0-.06-.21-.16-.33-.18-.27-.04-.54-.02-.8-.06-.2-.03-.42-.34-.56-.05-.07.13.1.43.24.59.16.19.41.3.63.45"/>
        <path class="cls-1" d="M119.3,54.06c-.14.02-.39,0-.57.09-.17.09-.31.29-.41.48-.05.09,0,.28.07.36.06.07.25.12.34.08.31-.16.62-.34.91-.54.1-.07.14-.21.21-.32-.11-.05-.22-.1-.33-.14-.04-.01-.09,0-.21,0"/>
        <path class="cls-1" d="M124.76,56.06c-.08,0-.19-.01-.25.03-.41.25-.58.65-.63,1.11,0,.04.13.15.19.14.47-.08.81-.31.99-.77.07-.18-.09-.46-.29-.5"/>
        <path class="cls-1" d="M124.41,53.27s.04.08.08.1c.07.03.18.1.23.07.47-.24.81-.58.76-1.15,0-.09-.06-.24-.08-.24-.11,0-.26.02-.32.09-.22.28-.42.57-.62.87-.04.07-.03.17-.05.25"/>
        <path class="cls-1" d="M112,69.12c.02.11.01.24.06.27.35.21.71.41,1.08.57.06.03.22-.11.31-.2.04-.04.02-.18-.02-.23-.28-.33-.68-.44-1.08-.54-.1-.03-.24.08-.35.13"/>
        <path class="cls-1" d="M116.37,36.66c.27.47.81.49,1.23.72.04.02.2-.14.28-.23.02-.02-.06-.18-.1-.18-.49-.03-.9-.42-1.41-.29h0Z"/>
        <path class="cls-1" d="M113.28,63.51c-.06.06-.18.13-.22.24-.08.19.01.36.17.47.12.09.35-.1.36-.28.01-.2-.04-.35-.3-.42"/>
      </g>
    </g>
    <path class="cls-24" d="M46.5,64c-.41-.29-.55-.71-.56-1.18-.01-.83-.03-1.65,0-2.48.01-.41-.08-.69-.49-.86-.29-.12-.56-.31-.8-.52-.28-.25-.62-.36-.95-.52-.94-.46-1.88-.94-2.67-1.66-.58-.53-1.23-.96-1.95-1.26-.05-.02-.2.09-.2.12.05.31.1.63.19.93.05.16.18.34.32.42.87.5,1.71,1.13,2.65,1.44,1.26.41,2.24,1.23,3.33,1.89.16.1.26.37.3.58.08.38-.13.6-.52.64-.5.05-.88-.06-1.16-.53-.18-.3-.45-.6-.75-.79-.4-.26-.71-.55-.95-.96-.27-.47-.74-.67-1.26-.74-.12-.01-.25.04-.21.24.13.81.11.84-.53,1.18-.53.29-1.06.54-1.67.59-.1,0-.19.17-.29.26.09.08.17.18.28.23.2.1.42.17.64.25.56.19,1.13.37,1.69.57.46.17.57.36.49.97-.03.22-.04.33.2.39.58.15,1.13.36,1.72.46.6.11.98.47,1.32.91.19.24.06.7-.26.78-.26.06-.54.09-.81.05-.36-.06-.72-.16-1.05-.31-.29-.13-.51-.13-.72.13-.14.18-.32.33-.48.49-.15.15-.32.19-.47.03-.22-.23-.44-.47-.64-.72-.18-.23-.14-.41.15-.7.27-.28.3-.38.09-.52-.28-.18-.54-.36-.65-.68-.18-.51-.6-.8-1.02-1.08-.49-.33-1.02-.62-1.48-.99-.36-.29-.75-.41-1.15-.31-.57.15-1.07.06-1.58-.18-.35-.17-.74-.23-1.07-.08-.48.2-.97.23-1.46.32-.39.07-.81.23-1.12.46-.54.4-1,.39-1.49-.04-.07-.06-.16-.13-.24-.13-.12,0-.3.04-.35.13-.22.4-.41.82-.6,1.24-.2.44-.12.89.03,1.32.07.2.25.28.44.22.87-.26,1.79-.34,2.61-.79.48-.26,1.01-.44,1.5-.68.45-.22.86-.2,1.31.03,1.1.55,1.12.7.1,1.52-.04.03-.1.07-.09.1.01.11,0,.28.08.33.43.33.93.33,1.45.33.4,0,.86-.1,1.17.25.33.36.73.36,1.14.3.22-.03.44-.14.66-.19.45-.1.85.09,1.1.42.24.31-.05.59-.24.85-.15.2-.06.46.17.51.53.12,1.07.24,1.61.33.41.07.9.05.98.57.07.41-.36.6-.61.86-.25.25-.54.34-.88.2-.64-.25-1.29-.47-1.92-.74-.19-.08-.36-.26-.49-.44-.29-.41-.67-.44-1.1-.33-.13.04-.25.13-.38.17-.71.18-1.41.37-2.13.51-.42.08-.78-.15-1.15-.32-.04-.02-.06-.21-.03-.23.22-.16.44-.32.69-.43.29-.14.6-.21.9-.34.05-.02.1-.15.08-.21-.02-.08-.1-.19-.17-.2-.22-.05-.46-.13-.67-.09-.8.14-1.63.26-2.35.69-.23.14-.43.31-.65.47.12.39.46.12.68.22.04.02.09.02.13.04.11.08.25.16.29.27.03.1-.04.26-.12.34-.46.52-1.11.61-1.74.68-.41.05-.82.03-1.2-.2-.3-.18-.45-.45-.37-.8.13-.58.48-.98,1.05-1.16.21-.07.51-.04.56-.31.08-.48.38-.57.79-.55.18,0,.37-.01.55-.04.27-.03.4-.26.38-.63-.02-.27-.17-.4-.43-.43-.53-.06-.99.18-1.47.3-.32.08-.24.29-.16.53.12.38.03.5-.34.51-.55.02-1.1.02-1.66.04-.19,0-.35.21-.27.38.12.3.24.6.18.93-.04.25-.28.55-.51.6-.18.03-.37.06-.55.04-1.12-.16-2.17.24-3.25.39-1.31.18-2.6.52-3.94.43-.36-.02-.73,0-1.1.04-.09.01-.22.17-.25.28-.08.32-.05.65.21.89.21.18.45.32.66.49.22.17.22.55.03.74-.07.06-.13.15-.21.18-.56.18-.75.63-.85,1.15-.06.31-.14.63-.15.94-.03,1.06-.03,2.12-.05,3.17,0,.32-.06.63-.12.94-.19,1-.11,2.01-.09,3.02.29.56.2,1.16.22,1.76.03.82-.05,1.65.26,2.45.09.24.05.55.05.82,0,.6,0,1.2,0,1.79,0,.6,0,1.2,0,1.79,0,.65,0,1.29,0,1.93,0,.6,0,1.2.02,1.79.4.58-.1,1.14-.03,1.71.03.23.03.46.02.69,0,.41-.02.83-.04,1.24,0,.05-.1.09-.15.13-.03-.04-.08-.07-.08-.11-.01-.55-.02-1.1-.03-1.66-.02-1.23.19-2.48-.25-3.68.05-.63-.12-1.29.15-1.91.07-.16.12-.36.1-.53-.03-.31-.15-.63-.14-.94,0-.36.12-.72.14-1.08.01-.22-.06-.45-.11-.67-.13-.53-.42-1.06-.39-1.59.04-1.02-.33-1.98-.34-2.99,0-.51-.21-.59-.75-.3-.35.18-.69.17-1.06.08-.71-.17-1.4-.39-2.13-.49-.63-.09-1.24-.31-1.79-.67-.24-.16-.29-.41-.15-.72.2-.44.38-.57.71-.48,1.14.31,2.28.65,3.44.88.5.1,1.13.07,1.43.66,0,0,.2-.05.21-.1.06-.26.11-.53.12-.8.01-2.35.01-4.69.02-7.04,0-.18,0-.37-.03-.55-.05-.24-.2-.43-.44-.48-.27-.06-.55-.05-.82-.09-.29-.04-.44-.31-.37-.62.02-.09.07-.17.13-.24.14-.19.09-.35-.09-.46-.31-.2-.64-.37-1.03-.32-.48.07-.9-.13-1.32-.3-.42-.17-.86-.31-1.29-.48-.38-.15-.78-.28-1.12-.5-1.09-.69-2.3-1.11-3.49-1.57-.16-.06-.39-.14-.52-.08-.59.29-.98-.07-1.34-.4-.64-.59-1.26-1.22-1.86-1.85-.5-.53-.32-1.39.33-1.75.33-.18.68-.27,1.06-.27.5,0,.77.17.83.71.08.7.38,1.19.96,1.57.22.14.34.42.53.62.15.16.31.34.51.44.45.22.92.42,1.4.57.82.27,1.64.52,2.43.9.6.29,1.31.4,1.94.67.16.07.36.06.54.06.71-.01,1.34.08,1.84.71.24.31.7.18,1.03.04.24-.1.21-.39.2-.62,0-.6-.01-1.2-.03-1.79-.02-.64.08-1.29-.23-1.9.1-.97-.48-1.86-.33-2.84.04-.29-.17-.51-.35-.72-.17-.19-.29-.2-.48.05-.39.51-.91.75-1.55.76-1.56.02-2.96-.51-4.26-1.33-.23-.14-.4-.38-.59-.58-.16-.16-.04-.45.2-.55.41-.17.82-.11,1.22-.04.27.05.52.17.79.23.3.07.45-.03.6-.37.3-.71.45-.83,1.11-.59.81.29,1.58.33,2.34-.12.08-.04.18-.03.27-.06.71-.26.79-.45.44-1.1-.04-.08-.1-.16-.15-.23-.11-.17-.31-.22-.45-.04-.46.55-1.02.76-1.71.62-.18-.04-.35-.1-.51-.19-1.4-.77-2.99-1.15-4.35-2.01-.5-.32-1.03-.6-1.53-.92-.3-.18-.42-.47-.39-.82.02-.25.17-.45.39-.49.48-.07.89.03,1.27.36,1,.87,2.14,1.39,3.51,1.28.36-.03.75,0,1.08.13,1.03.4,1.98,0,2.96-.18.01,0,.03-.17,0-.21-.16-.19-.36-.22-.62-.15-1.19.34-2.35.34-3.45-.3-.24-.14-.5-.33-.75-.32-.57.02-1-.29-1.33-.63-.48-.49-1.05-.87-1.53-1.34-.1-.1-.23-.18-.28-.3-.08-.21-.14-.44-.14-.66,0-.34.41-.54.71-.35.15.1.31.21.43.34.31.31.62.54,1.09.29.12-.06.35.03.5.1.42.19.83.41,1.25.59.85.37,1.77.37,2.67.49.05,0,.15-.11.17-.18.02-.07,0-.19-.05-.25-.26-.36-.68-.44-1.05-.61-.24-.11-.52-.2-.71-.38-.38-.36-.81-.58-1.3-.74-.41-.13-.68-.65-.65-1.09.02-.25.35-.55.57-.5.49.12.97.26,1.45.39.31.08.4.01.34-.35-.04-.21-.06-.36.2-.38.34-.03.48-.23.46-.55-.02-.39-.21-.76-.47-.76-.65.01-1.24-.3-1.87-.35-.39-.03-.71-.12-.98-.4-.43-.44-.98-.75-1.54-.89-.65-.16-1.02-.58-1.43-1-.44-.46-.44-.59-.05-1.18.14-.2.26-.38.12-.62-.17-.28-.14-.54.13-.72.26-.17.4.1.57.23.18.13.41.25.52.43.33.54.82.84,1.36,1.11.28.14.51.38.77.58.18.14.35.3.54.42.05.04.21.02.24-.02.07-.1.09-.24.12-.36,0-.04,0-.11-.04-.13-.54-.32-.84-.82-1.1-1.36-.06-.12-.3-.22-.46-.22-.72,0-.89-.55-1.05-1.08-.02-.07.15-.27.22-.27.59,0,1.23-.1,1.77.08.69.23,1.36.1,2.04.14.05,0,.14-.11.15-.17,0-.08-.06-.17-.09-.26-.18-.48-.36-.96-.98-1.01-.81-.57-1.43-1.28-1.63-2.29-.09-.46.04-.81.39-1.08.16-.13.37-.13.5.01.21.23.36.53.58.76,1.13,1.24,1.25,1.43,2-.2.06-.12.13-.24.17-.37.08-.24-.02-.57-.25-.74-.18-.13-.4-.22-.58-.36-.1-.08-.19-.23-.19-.35.02-.52.18-.99.63-1.31.16-.12.5-.09.65.05.1.09.22.18.28.3.32.66.62,1.33.94,1.98.05.11.15.2.26.27.1.06.19-.22.12-.44-.1-.3-.2-.61-.32-.91-.27-.68-.19-1.33.44-1.71.49-.29.54-.65.57-1.13.04-.68-.03-1.28-.62-1.72-.04-.03-.07-.06-.09-.1-.4-.6-.11-1.47.57-1.67.9-.27,1.69.11,2.49.41.6.78,1.63,1.02,2.23,1.81.09.13.3.2.48.24.48.11.98.19,1.48.27.07.01.15-.06.23-.09-.03-.04-.05-.08-.09-.1-.11-.08-.24-.13-.34-.23-.66-.61-1.49-1.06-1.79-2.01-.07-.22-.38-.47-.61-.5-.92-.14-1.28-.81-1.62-1.53-.19-.39-.02-.7.26-.99.26-.27.51-.32.86-.15.28.14.6.17.88.36.53.35,1,.78,1.65.96.39.11.68.48.7.94.02.43.19.8.42,1.15.13.2.61.37.73.24.11-.12.18-.31.2-.47.03-.27-.02-.55.01-.83.08-.77-.06-1.37-.97-1.51-.16-.02-.29-.22-.44-.33-.22-.16-.44-.33-.67-.46-.8-.44-1.26-1.17-1.67-1.94-.25-.46.03-.96.54-1.02.4-.05.82-.07,1.22-.15.14-.03.27-.17.22-.42-.1-.58-.08-.64.42-.8.29-.09.44-.2.55-.51.21-.6.39-.65.9-.44.13.06.25.12.38.17.67.28.78.22.88-.47.04-.27.13-.53.18-.8.2-.96.31-1.91-.45-2.71-.03-.03-.07-.06-.11-.09-.03.07-.09.13-.11.21-.03.13-.01.28-.06.41-.18.5-.75.62-1.06.2-.36-.48-.7-.96-1.24-1.26-.15-.09-.27-.25-.39-.39-.59-.65-.44-1.66.29-2.14.21-.13.42-.18.64-.02.14.11.26.24.41.35.26.18.51.39.8.5.38.15.79.21,1.18.3.27.07.54-.25.43-.53-.15-.38-.34-.75-.5-1.12-.26-.59-.57-1.17-.57-1.82.01-1.05-.22-2.11.25-3.13.07-.15.05-.37.03-.55-.08-.76.4-1.18.93-1.57.22-.16.55-.12.76.08.09.09.16.22.24.33.05.07.11.12.17.19.1-.1.26-.19.27-.29.01-.68.03-1.37-.03-2.05-.02-.27-.15-.53-.01-.8.15-.29.07-.53-.14-.74-.13-.13-.27-.26-.37-.41-.11-.15-.19-.36,0-.48.33-.2.39-.48.36-.82-.04-.45-.09-.91-.1-1.36,0-.1.15-.24.26-.29.1-.04.25-.01.37.02.08.02.17.1.2.18.31.77.61,1.55.32,2.39-.09.27-.19.53-.07.8.17.36.1.68,0,1.06-.18.68-.18,1.34.35,1.94.34.38.44.9.41,1.42-.02.32-.02.65-.02.97,0,.38-.1.71-.34,1.02-.22.28-.48.56-.45.96.46.3.75-.15,1.11-.27.17-.05.33-.16.49-.24.24-.13.43-.06.61.13.18.18.24.42.15.63-.18.41-.42.8-.63,1.2-.4.04-.8.09-1.21.13-.14.01-.27,0-.41,0-.26.01-.4.16-.42.44-.02.29.01.53.33.68.31.14.49.41.49.77,0,.36.12.81-.2,1.04-.54.4-.57,1.02-.81,1.55-.17.36.07.62.25.87.19.26.86.19.92-.12.1-.51.47-.73.86-.76.69-.06,1.22-.35,1.74-.75.04-.03.08-.04.12-.07.26-.14.54-.04.69.24.13.24.24.49.36.74.28.61.11,1.2-.5,1.48-.45.21-.94.34-1.41.53-.57.24-1.15.29-1.75.28-.43,0-.82-.06-1.13-.4-.06-.06-.15-.09-.24-.12-.03,0-.08,0-.11.03-.03.02-.08.08-.07.1.12.24.22.51.39.72.35.44.8.75,1.32.97.2.09.44.23.52.41.22.48.14.97-.07,1.46-.16.37-.45.39-.78.43-.17.02-.36.11-.48.23-.26.24-.56.28-.88.33-.15.02-.33.15-.42.29-.16.22-.25.49-.38.73-.09.18,0,.27.15.25.22-.04.41-.1.66-.02.49.15,1,.19,1.48-.03.19-.08.26.05.29.17.06.22.03.47.12.67.06.15.24.29.4.34.51.16,1.25-.57,1.12-1.08-.03-.12-.11-.29-.21-.33-.5-.22-.85-.71-1.43-.78-.04,0-.12-.13-.1-.19.02-.08.09-.17.16-.21.12-.06.26-.12.39-.12,1.29,0,2.57,0,3.86,0,.24,0,.45.26.38.47-.29.94-.72,1.84-1.65,2.27-.86.4-1.41.98-1.72,1.85-.06.16-.24.28-.34.43-.17.26-.14.53.04.77.15.2.35.24.61.16.83-.24,1.67-.46,2.51-.68.17-.04.39-.08.54-.01.38.17.77.26,1.18.31.07,0,.15.11.19.18.2.42.03.99-.34,1.2-.12.07-.23.19-.36.2-.66.08-1.2.45-1.77.73-.47.23-.57.21-.81-.33-.11-.25-.26-.37-.51-.35-.27.02-.55.05-.82.09-.27.04-.53.12-.8.14-.46.03-.82-.13-.9-.64-.05-.35-.28-.44-.58-.45-.18,0-.37-.02-.55-.01-.39,0-.77.4-.75.82.02.31.34.23.54.28.09.02.18.02.27.05.48.19.64.74.28,1.12-.28.3-.59.58-.94.79-.38.22-.48.51-.47.91.03.91.1,1.82,0,2.72-.01.09,0,.18,0,.28.02.35.21.55.52.47.93-.23,1.86-.45,2.75-.82.05-.02.08-.11.11-.17-.04-.02-.08-.05-.12-.06-.41-.04-.82-.05-1.22-.13-.14-.03-.31-.24-.34-.38-.02-.14.09-.38.22-.46.34-.23.77-.33,1.08-.6.3-.26.49-.65.73-.98.05-.07.12-.14.19-.19.68-.46,1.36-.93,2.06-1.37.14-.09.36-.07.54-.06.2,0,.34.13.37.34.02.14.06.3,0,.41-.28.56-.21,1.16-.32,1.74-.07.39-.02.53.29.73.31.21.33.47.12.71-.49.54-.97,1.11-1.66,1.42-.17.08-.31.19-.47.29-.02.01-.02.07-.01.09.03.03.08.07.11.06.44-.12.88-.23,1.31-.37.59-.19.59-.2.99.31.29.36.43.4.81.19.48-.27.93-.58,1.42-.84.32-.17.67-.11.84.21.3.55.76.71,1.33.83,1.48.3,1.47.33,2.81,1.28.26.18.52.38.8.53.24.14.49.24.75.34.18.07.4.03.47-.15.06-.15.04-.38-.04-.52-.18-.33-.47-.56-.83-.7-.61-.24-1.07-.69-1.54-1.14-.53-.51-.96-1.11-1.65-1.45-.34-.17-.43-.58-.3-.97.11-.33.34-.55.7-.57.41-.03.83-.05,1.22.14.05.02.14-.04.21-.08.02,0,0-.1-.01-.13-.17-.22-.35-.43-.52-.64-.16-.19-.2-.37-.12-.63.27-.84.26-.84,1.12-.89.09,0,.18.01.27,0,.09,0,.18-.04.26-.06-.05-.06-.08-.14-.14-.18-.93-.68-1.55-1.66-2.35-2.47-.1-.1-.19-.2-.26-.32-.18-.29-.17-.61-.06-.93.13-.36.6-.56.91-.36.42.27.81.59,1.22.88.18.13.36.32.57.36.67.14,1.16.52,1.62.98.03.03.14,0,.21-.02.02,0,.04-.09.02-.12-.25-.49-.49-.98-.75-1.46-.39-.67-.82-1.32-1.19-2-.29-.53-.22-.81.22-1.21.33-.3.66-.33.99-.07.21.17.4.38.63.53.08.05.29.01.34-.06.13-.18.29-.4.3-.61.03-.67.17-1.26.72-1.71.14-.12.13-.42.2-.63.05-.17.1-.35.19-.5.23-.38.83-.36,1.03.03.08.16.15.34.15.52,0,.5-.01.99-.15,1.49-.2.73-.48,1.46-.17,2.27.13.35,0,.81-.08,1.21-.08.45-.24.88-.35,1.32-.02.07.03.22.07.23.12.03.26.04.36,0,.22-.11.29-.34.32-.57.09-.59.16-1.18.29-1.75.05-.19.24-.38.42-.51.16-.12.52.04.68.33.18.31.29.66.42,1,.33.89.04,1.62-.63,2.23-.2.18-.45.3-.68.47-.27.2-.45.44-.48.79-.01.22-.12.44-.15.66-.02.18.12.21.26.17.44-.12.89-.22,1.32-.37.26-.09.45,0,.61.17.17.19.22.43.13.64-.15.33-.27.66-.71.78-.39.1-.73.36-1.09.56-.46.25-.81.59-.9,1.14-.04.22-.19.51-.11.62.21.27.49.01.74-.04.54-.11,1.05-.29,1.56-.51.25-.11.53-.14.8-.15.43-.03.65.26.59.71-.05.36-.27.55-.59.68-.55.22-1.09.47-1.63.72-.07.03-.13.14-.14.22,0,.04.11.14.17.13.91-.03,1.83.2,2.72-.2.34-.16.72.02,1.05.21.31.17.41.54.22.81-.33.46-.74.85-1.29,1-.66.17-1.3.5-2,.42-.94-.12-1.82.16-2.72.32-.15.03-.3.2-.38.35-.04.06.08.25.17.34.36.39.48.41.91.09.24-.18.44-.3.74-.12.57.34,1.17.56,1.82.19.04-.02.09-.02.13-.02.28-.04.54.09.69.35.13.22.13.44,0,.65-.12.19-.35.35-.39.55-.06.35.4.32.53.54.11.19.19.41.28.61.16.39.4.69.84.83.5.16.55.32.54.78,0,.6-.37.96-.86,1.13-.46.16-.93.4-1.46.36-.17-.01-.4,0-.41.24,0,.09.16.19.24.29.24.29.28.5.12.73-.17.25-.4.37-.71.32-.05,0-.1,0-.14-.03-1.06-.52-2.06-.03-3.08.17-.14.03-.34.25-.34.39-.02.68.01,1.37.04,2.05,0,.05.13.13.2.14.08,0,.21-.03.24-.09.11-.19.21-.4.28-.61.21-.57.58-.91,1.22-.94.31-.02.63-.11.93-.2.57-.17,1.13-.38,1.69-.55.42-.13.8.19.88.63.13.68-.63.99-.64,1.63,0,.16-.29.32-.45.47-.03.03-.09.03-.13.05-.4.21-.81.31-1.27.39-1.01.19-1.78.91-2.58,1.51-.2.15-.31.46-.39.72-.05.15,0,.37.07.51.11.19.32.14.49.07.26-.1.49-.28.75-.34.35-.08.72-.12,1.08-.1.15,0,.35.15.44.29.09.13.11.34.08.51-.02.1-.18.22-.29.24-.27.04-.55.02-.82.05-.68.08-1.2.43-1.57,1-.15.23.05.62.31.63.55.02,1.1,0,1.66.02.22,0,.45.04.67.11.37.12.52.6.27.9-.17.21-.36.43-.58.58-.31.2-.62.29-.99,0-.33-.27-.78-.68-1.22-.33-.34.27-.06.78-.1,1.18,0,.13.07.26.11.4.1.35.1.77.31,1.03.31.39.75-.12,1.15,0,.21.06.46-.01.69-.01.75,0,1.42-.22,2.07-.61.78-.47,1.58-.91,2.5-1.1,1.26-.25,1.25-.3,1.93.83.02.04.03.1.06.12.11.06.22.12.35.12.04,0,.15-.14.14-.21-.05-.56.27-.83.72-1.02.29-.12.59-.23.87-.38.67-.36.92-.22.95.5.03.62-.15,1.08-.77,1.3-.26.09-.49.29-.75.35-.54.13-1.07.26-1.56.51-.1.05-.25-.02-.38-.03-.27-.03-.54-.06-.81-.08-1.2-.06-2.38.1-3.55.31-.62.11-1.27.19-1.84.51-.17.1-.3.19-.24.41.04.17.16.39.09.5-.17.27-.39.02-.6-.01-.27-.04-.55-.06-.82-.06-.08,0-.21.03-.25.09-.26.42-.73.71-.72,1.28h.02ZM21.08,49.36c0,.32.13.49.45.58.44.12.86.27,1.33.25.59-.02,1.19.02,1.78.02.15,0,.35.04.43-.17-.13-.03-.26-.11-.38-.1-1.04.06-1.93-.45-2.87-.77-.26-.09-.5-.22-.75-.34.01-.24.04-.48.33-.52.36-.05.73-.05,1.09-.09.17-.02.29-.46.17-.58-.27-.27-.6-.5-.97-.4-.53.13-1.03.35-1.53.57-.09.04-.17.23-.16.34,0,.12.1.28.2.33.28.14.59.23.89.35,0,.18,0,.36-.01.55M24.66,38.82c.18.03.37.04.55.03.26,0,.61.13.73-.18.1-.28.05-.62.05-.93,0-.03-.14-.11-.18-.09-.78.36-1.5,0-2.24-.16-.17-.53-.95-.59-.95-1.25-.6-.31-1.2-.63-1.81-.91-.33-.15-.68-.24-1.04-.33-.31-.08-.53.09-.59.4-.05.31-.09.63-.16.94-.04.17-.17.35.02.48.04.03.22-.14.32-.22.36-.31.79-.28,1.17-.16.4.12.77.25,1.19.25.21,0,.44.12.62.24.38.25.73.56,1.22.55.04,1.05.12,1.16,1.08,1.34M34.22,46.95c-.21.07-.43.16-.64.21-.94.2-1.87.39-2.8.59-.04,0-.08.04-.11.07.05.05.08.12.14.14,1.06.41,2.15.42,3.23.16.46-.11,1-.05,1.32-.57.08-.13.42-.13.64-.15.36-.02.73.01,1.1,0,.33-.02.5-.3.47-.68-.02-.17,0-.35-.02-.52-.02-.18-.22-.34-.39-.27-.6.26-1.15.16-1.72-.09-.16-.07-.36-.03-.54-.04,0-.14,0-.28-.02-.41-.03-.36-.2-.61-.57-.67-.49-.07-1.02-.04-1.26-.61.31-.47.84-.5,1.3-.66.17-.06.35-.12.53-.13.86-.03,1.61-.36,2.26-.87.9-.71,1.83-.75,2.81-.22.08.04.17.1.26.1.06,0,.16-.07.17-.13.03-.13,0-.28.04-.41.07-.33.31-.49.58-.39.17.06.34.14.5.22.41.2.83.39,1.23.62.57.33,1.15.54,1.82.49.3-.02.62.13.93.18.03,0,.14-.14.13-.19-.12-.39-.2-.82-.76-.81-.83.02-1.52-.36-2.12-.86-.81-.68-1.82-1.06-2.63-1.75-.12-.11-.34-.13-.52-.14-.68-.04-1.38.07-2.03-.25-.08-.04-.18-.02-.27-.02-.8-.06-.93.03-1.22.79-.24.64-.47,1.29-.72,1.92-.21.52-.54.94-1.08,1.2-.52.24-.56.26-.77-.29-.11-.29-.24-.5-.55-.54-.29-.04-.51-.17-.72-.36-.83-.7-1.81-.54-2.76-.4-.49.07-.64.35-.64.89,0,.28,0,.55.01.83.04.74.44,1.18,1.22,1.19.61,0,1.18.12,1.76.25.61.13.65.19.48.83-.12.45-.04.57.42.58.5,0,1.01,0,1.52,0,.23,0,.46.01.69.02.09.57-.1.99-.68,1.18M26.94,67.02c.33,0,.48-.18.48-.53,0-.46,0-.89-.3-1.3-.43-.59-.39-.6-1.19-.45-.31.06-.63.05-.95.09-.4.05-.82.08-1.21.18-.59.14-1.18.18-1.76,0-.22-.07-.42-.11-.66-.04-.86.22-1.71.26-2.55-.1-.23-.1-.45.09-.46.34-.04.78,0,1.54.44,2.25.4.64.86.69,1.35.08-.14-.59.28-.51.62-.51.96,0,1.92,0,2.89,0h0c1.1,0,2.2.01,3.3,0M28.99,59.2c.38-.14.75-.32,1.12-.49.33-.15.64-.35.99-.46.25-.08.59-.09.73.21.24.53.72.67,1.21.81.26.07.54.11.79.2.28.11.43.03.49-.25.02-.09.03-.19.08-.26.16-.25.53-.29.71-.06.19.25.27.59.64.66.44.09.83-.06,1.17-.29.42-.3.84-.5,1.36-.59.39-.06.74-.34,1.11-.52.04-.02.08-.08.08-.1-.04-.08-.09-.18-.16-.21-.66-.3-1.33-.59-2-.89-.27-.12-.56-.15-.76.07-.46.48-1.12.34-1.66.59-.11.05-.27,0-.4-.03-.36-.06-.72-.12-1.08-.18-.22-.04-.5-.02-.65-.15-.42-.36-.89-.41-1.41-.43-.26,0-.52-.14-.79-.19-.37-.08-.73-.15-.95.28-.04.07-.14.16-.21.16-1.09,0-.95.88-1.13,1.42,0,.51.37.84.72.71M29.94,51.41c.8-.28,1.54-.03,2.27.24.18.07.39.31.42.49.08.49.37.58.78.56.14,0,.28,0,.41,0,.65-.04.83-.39.55-1.02-.11-.25-.24-.49-.32-.75-.13-.49.16-.91.69-.98.22-.03.46-.01.68-.05.3-.05.51-.33.53-.7,0-.07-.08-.22-.11-.22-.73.03-1.45.06-2.18.14-.21.02-.43.15-.6.29-.52.45-1.12.59-1.79.53-.79-.07-1.56.05-2.29.33-.18.07-.4.29-.44.48-.13.59.08.83.76.81.09-.02.37-.04.62-.13M27.14,57.67c0-.15-.24-.31-.41-.27-.22.06-.43.17-.65.2-.46.07-.92.12-1.3-.24-.21-.2-.48-.28-.76-.26-.77.07-1.43-.27-2.1-.54-.38-.15-.61-.41-.58-.84.02-.42-.21-.62-.54-.87-.45-.33-.86-.42-1.38-.26-.26.08-.55.02-.83.05-.32.04-.51.38-.42.73.04.13.11.26.12.39.05.42.31.65.68.79.38.15.76.35,1.16.42.55.09,1.05.27,1.55.52.14.07.37.07.51,0,.72-.34,1.33.17,2,.21.06,0,.15.13.16.2.05.51.45.65.83.81.25.1.51.2.78.25,1.12.2,1.17.06,1.17-.88,0-.14,0-.28,0-.41M32.92,55.4c.92-.26,1.83-.55,2.71-.9.52-.2.93-.21,1.4.14.31.24.74.33,1.12.47.06.02.15-.05.23-.08-.02-.04-.03-.09-.05-.12-.61-.7-1.29-1.29-2.24-1.5-.28-.06-.51-.1-.78.03-.37.17-.77.28-1.14.44-.72.31-1.44.29-2.1-.1-.36-.21-.67-.24-1.01,0-.57.38-1.22.35-1.86.32-.46-.02-.67.2-.82.57-.08.2-.03.41.14.45.49.11.94.35,1.46.36.45.01.89.14,1.32.21.56-.09,1.11-.13,1.63-.28M44.9,57.36c.76.09.86-.27.69-.91-.01-.04-.04-.08-.06-.13-.24-.53-.43-1.1-.74-1.59-.32-.49-1-.39-1.45-.69-.84-.55-1.68-1.09-2.52-1.64-.11-.07-.22-.16-.35-.2-.06-.02-.21.04-.22.09-.12.35-.28.63-.65.82-.34.17-.31.58-.01.78.34.24.7.42,1.14.42.94-.02,1.77.37,2.59.78.16.08.33.17.47.28.28.24.57.5.45.92-.1.34-.37.5-.71.54-.08,0-.16.08-.23.12.09.1.16.27.27.29.35.08.71.11,1.07.15,0-.01,0-.03,0-.04.09,0,.18,0,.27,0M22.54,45.76c.41-.04.69.12.88.49.14.27.39.31.7.22.57-.16,1.15-.29,1.72-.4.27-.05.55-.04.82-.03.32,0,.46.16.51.52.03.23.04.45.07.68,0,.03.06.06.08.06.04,0,.1-.01.13-.04.47-.64.52-1.32.21-2.04-.07-.16-.19-.14-.32-.08-.31.14-.62.13-.93,0-.09-.03-.16-.1-.25-.11-1.17-.21-2.31-.5-3.28-1.24-.17-.13-.35-.14-.39.13-.05.35-.22.6-.54.75-.41.2-.69.62-1.2.62-.04,0-.12.14-.12.21,0,.07.08.19.14.2.36.05.72.08,1.08.12,0-.02,0-.03,0-.05.23,0,.46.02.69,0M26.69,63.25c.11-.07.23-.15.33-.23.03-.02.06-.09.04-.12-.03-.08-.07-.2-.13-.21-.67-.13-1.34-.24-2.01-.37-.97-.19-1.94-.41-2.92-.6-.12-.03-.31-.07-.37,0-.49.51-1.11.35-1.69.37-.14,0-.28,0-.41.01-.09,0-.17.05-.26.08.06.11.09.27.18.32.4.22.8.47,1.29.41.75-.09,1.47.1,2.16.3.72.21,1.43.26,2.28.26.43-.03.99.1,1.5-.22M20,58.74c-.34-.15-.66-.3-1.04-.06-.09.06-.32-.1-.48-.17-.16-.07-.31-.17-.48-.23-.03,0-.15.13-.14.18.02.13.07.29.17.35.78.46,1.53.94,2.47,1.08.85.12,1.66.43,2.49.65.22.06.44.1.67.12.25.03.44-.14.45-.39.03-.66-.4-1.19-1.01-1.22-.32-.02-.64,0-.75,0-.94.03-1.66-.01-2.35-.31M26.3,42.42c.08-.03.2-.1.2-.16,0-.12-.01-.29-.09-.37-.13-.11-.3-.22-.47-.23-.6-.05-1.15-.28-1.68-.53-.23-.12-.52-.27-.62-.49-.23-.45-.62-.66-1.02-.86-.41-.2-.82-.4-1.23-.59-.27-.12-.54.09-.56.4-.03.34.02.67.35.83.45.21.8.58,1.31.71.52.14.99.47,1.48.71.71.35,1.6.61,2.08.61.08,0,.18,0,.26-.04M44.53,53.2c.16-.02.3-.24.27-.41-.07-.42-.25-.78-.55-1.09-.25-.26-.51-.52-.78-.77-.18-.17-.44-.25-.64-.14-.85.47-1.59.13-2.33-.26-.05-.03-.16.04-.24.07.01.04.01.09.04.11.89.93,1.84,1.79,3.03,2.31.28.12.6.18.74.22.28-.02.37-.03.46-.04M31.4,39.97c1.21.21,2.24-.28,3.25-.86.07-.04.18-.11.19-.18.02-.13.01-.27-.02-.4-.02-.06-.15-.14-.21-.13-.44.1-.9.17-1.31.34-.45.18-.9.15-1.35.14-.22,0-.27-.14-.13-.36.05-.08.13-.14.16-.22.02-.05-.04-.14-.08-.19-.01-.02-.09,0-.13.02-.34.13-.44.46-.57.74-.32.67-.86.9-1.57.86-.43-.03-.72-.5-.48-.9.13-.22.38-.38.58-.56.09-.08.08-.16-.07-.17-.51-.05-.8,0-.81.44-.01.32-.02.64-.02.96,0,.32.16.48.52.48.55.01,1.1,0,1.65,0h0c.14,0,.28-.03.41,0M26.79,53.07c-.07-.27-.54-.41-.65-.2-.51.95-1.47.99-2.34,1.19-.26.06-.55.04-.82.06-.04,0-.07.04-.1.07.03.04.05.09.08.11.3.11.59.25.9.3.41.06.83.02,1.24.05.27.02.53.1.79.17.3.08.43.28.47.59.04.25.17.25.35.09.28-.26.5-.54.42-.99-.11-.45-.2-.94-.34-1.42M18.36,51.22c.02.21.14.32.34.35.89.16,1.78.33,2.66.48.03,0,.09-.03.11-.07.02-.02.02-.08,0-.11-.15-.17-.29-.36-.47-.49-.29-.21-.6-.42-.93-.57-.35-.16-.58-.4-.73-.76-.06-.15-.24-.27-.39-.37-.24-.16-.6,0-.62.28-.01.23,0,.45,0,.68h-.02c0,.18.01.37.03.55M16.46,41.71c-.44.47-.9.91-1.48,1.21-.23.12-.19.26.08.39.16.08.32.18.5.22.49.12.96-.03,1.26-.37.36-.43.49-.98.19-1.53-.04-.07-.14-.1-.23-.16-.1.08-.23.15-.32.24M26,49.99c.12.13.25.26.38.38.15.14.31.4.54.16.11-.11.18-.34.14-.47-.09-.27-.16-.49-.01-.77.1-.19.11-.44.12-.66,0-.29.4-.55.06-.86-.29.12-.59.22-.86.37-.15.08-.26.23-.14.44.21.37.12.69-.18.97-.06.06-.12.14-.17.21.04.08.06.17.12.23M16.04,38.17c-.21-.1-.35-.05-.43.16-.1.25-.21.51-.26.77-.02.11.05.28.14.36.4.32.85.55,1.39.48.07,0,.19-.1.19-.15-.05-.5-.1-1-.18-1.49-.04-.21-.21-.06-.49-.02-.02,0-.2-.04-.36-.11M46.81,44.97c.05.09.26.22.3.18.41-.28.8-.59,1.18-.9.05-.04.08-.17.06-.24-.07-.26-.17-.51-.27-.76-.02-.04-.14-.07-.2-.06-.18.04-.35.11-.52.15-.37.08-.53.32-.56.68-.01.18-.02.36-.02.56,0,.12-.03.28.03.39M38.99,48.52c.88.37,1.77.74,2.66,1.09.06.03.18-.02.24-.07.03-.02,0-.19-.04-.2-.86-.31-1.61-.85-2.41-1.28-.18-.09-.35-.02-.49.13-.03.03-.05.07-.08.12.04.06.06.17.11.2M44.63,47.78s.15.01.18-.03c.11-.14.19-.31.31-.45.15-.16.45-.3.45-.44,0-.3-.15-.6-.25-.9-.01-.03-.18-.05-.21-.02-.24.22-.46.45-.68.68-.06.06-.06.16-.1.26.1.29.19.6.3.89M36.31,50.86c.48-.05.98-.06,1.41-.34.06-.04.1-.19.08-.22-.18-.2-.37-.39-.58-.56-.06-.05-.21-.07-.25-.03-.3.27-.58.56-.86.85-.02.02,0,.08.02.13.06.06.13.18.18.17M18.7,38.93c.03.09.2.21.31.2.42-.01.49-.51.83-.65-.03-.08-.05-.18-.1-.23-.31-.25-.74-.37-.88-.81-.01-.03-.08-.05-.11-.07-.04.07-.1.13-.11.2-.03.18-.03.36-.05.58.03.24.04.51.12.77M39.14,52.03c.12-.05.26-.14.3-.24.03-.08-.06-.24-.14-.31-.24-.19-.51-.36-.77-.53-.23-.15-.28,0-.31.2-.02.13-.08.25-.11.38-.07.26.03.46.25.51.04.01.08.03.13.04.09,0,.18.01.32.02.08-.01.22,0,.34-.06M26.75,60.8s-.02-.1-.05-.12c-.21-.17-.4-.41-.64-.48-.47-.14-.96-.19-1.45-.27-.03,0-.09.05-.1.08-.01.03.01.1.04.12.27.17.52.38.81.48.42.14.86.2,1.3.3.04-.04.09-.06.1-.09M29.49,46.89c.39-.03.68-.33.7-.7,0-.19-.2-.36-.47-.39-.43-.04-.6.1-.62.5-.02.37.14.6.39.58M15.98,49.04c.35.35.67.72.75,1.24.06-.02.16-.03.18-.08.34-.6-.01-1.26-.73-1.37-.07-.01-.16.06-.24.09.01.04,0,.09.03.11M19.71,42.68c.08-.02.16-.1.18-.17.02-.06-.03-.2-.09-.22-.29-.12-.59-.24-.89-.31-.08-.02-.28.12-.28.19,0,.16.04.38.15.47.12.1.34.08.45.1.21-.02.35-.02.48-.06M46.16,33.58c0-.13-.02-.33-.09-.37-.32-.15-.66-.25-1.01-.36-.02,0-.08.04-.1.08-.01.03,0,.09.03.11.26.25.53.51.8.74.05.05.17.02.25.03.04-.08.12-.16.12-.23M16.77,46.24c0-.07.02-.19-.02-.21-.38-.22-.77-.44-1.17-.64-.05-.03-.14.03-.21.04.02.12.05.24.08.35.01.03.06.07.1.08.37.14.74.28,1.1.42.05-.02.12-.03.12-.05M45.62,49.3s.18-.04.21-.1c.17-.42.04-.73-.36-.85-.08-.03-.21.08-.4.16.2.3.37.55.55.79M24.57,33.86c.26.16.53.31.79.47.03-.08.09-.16.1-.24.01-.19-.06-.37-.27-.4-.22-.03-.44,0-.67,0,.03.1.02.16.05.18M43.74,35.69s.11.05.12.04c.05-.06.12-.14.12-.22,0-.35-.15-.49-.51-.47-.06,0-.12.09-.22.17.17.16.32.32.49.48M48.91,46c.07.03.17.02.26.01.18-.02.37-.26.29-.34-.09-.08-.22-.14-.34-.15-.21-.01-.37.14-.36.29.05.06.09.16.15.19"/>
    <path class="cls-23" d="M23.14,75.12c.19.04.63.13,1.08.2.86.13,1.72.17,2.56-.07.22-.06.35-.02.37.22.06.91.36,1.79.34,2.71.38.48.01.86-.18,1.25-.08.16-.25.26-.46.14-.25-.13-.5-.24-.73-.38-.11-.06-.26-.18-.27-.28-.04-.61-.46-.59-.89-.58-.55.02-1.1.03-1.65.05-.19,0-.3.26-.18.41.69.93,1.53,1.69,2.65,2.09.35.13.66.26,1.04.04.15-.09.43.05.66.07.08,0,.21,0,.24-.05.16-.22.33-.44.43-.69.06-.15.02-.35-.02-.51-.23-1-.26-1.98.22-2.94.12-.23.17-.52.19-.79.15-1.94-.04-3.65-.58-5.42-.07-.22-.18-.42-.32-.6-.05-.07-.25-.1-.33-.05-.1.06-.16.21-.23.33-.13.21-.32.34-.57.33-.96-.04-1.91.11-2.87-.16-.78-.22-1.62-.25-2.43-.35-.08,0-.24.07-.24.09.02.12.04.28.12.34.68.58,1.44.98,2.36.97,1.07-.02,2.07.32,3.07.66.6.2.79.69.59,1.31-.04.12-.1.13-.19.02-.11-.14-.19-.31-.32-.44-.17-.18-.44-.25-.63-.13-.56.35-1.2.43-1.81.61-.57.16-1.15.28-1.7.5-.54.21-1.07.2-1.62.21-.64.01-1.28.02-1.93.07-.1,0-.23.15-.27.25-.03.11-.01.31.07.37.31.26.65.51,1,.73.28.18.33.44.27.71-.05.26-.2.51-.26.77-.02.1.06.29.16.34.07.04.27-.03.34-.11.11-.13.16-.33.26-.48.25-.38.25-.73,0-1.13-.19-.3-.1-.38.23-.41.72-.05,1.45-.12,2.43-.2"/>
    <path class="cls-23" d="M53.25,75.66c.63.05,1.18-.13,1.73-.4.19-.1.47-.2.65-.13,1.06.41,1.95-.22,2.88-.46.26-.07.47-.41.67-.66.16-.22-.05-.62-.31-.62-.41,0-.86-.08-1.23.05-.56.2-1.05.09-1.6.01-.52-.08-.96-.17-1.37-.52-.31-.26-.72-.39-1.15-.4-.11,0-.32-.15-.31-.19.04-.16.1-.37.23-.45.8-.52,1.58-1.03,2.52-1.33,1.3-.42,2.5-1.11,3.63-1.9.53-.38.99-.82,1.2-1.46.08-.23-.1-.64-.34-.66-.91-.06-1.8-.23-2.71-.32-.32-.03-.45.16-.32.53.09.25.12.43-.15.56-.48.22-.8.63-1.06,1.06-.17.29-.39.37-.68.32-.54-.09-.99.11-1.44.35-.77.41-1.47.92-2.13,1.49-.46.39-.48.38-.11.91.15.22.11.39.03.63-.2.64.13,1.19.78,1.31.22.04.46.04.69.04.4-.01.69.19.96.46.15.15.15.31,0,.47-.23.24-.47.41-.82.46-.5.06-.98.18-1.47.29-.05,0-.12.13-.11.18.02.08.09.19.16.2.4.08.8.14,1.2.2"/>
    <path class="cls-23" d="M30.43,78.08c.26,0,.31.01.35,0,.78-.32,1.62-.18,2.43-.29.32-.04.6-.05.92-.01.5.06,1.01.02,1.51.05.61.04,1.18-.09,1.72-.39.24-.13.48-.27.74-.36.36-.12.75-.14,1.03.17.87.96,2.11,1.01,3.23,1.35.42.13,1-.33,1.09-.83.02-.14-.09-.41-.2-.46-.67-.28-1.38-.49-2.05-.76-.36-.14-.77-.23-1.07-.07-.59.32-.79-.05-1.06-.42-.22-.3-.52-.49-.93-.5-.31,0-.62-.11-.94-.17-.29-.06-.53-.05-.69.26-.33.64-1.01.76-1.59.99-.56.23-1.16.1-1.71-.23-.58-.35-1.23-.38-1.85-.15-.7.26-1.39.45-2.13.45-.19,0-.38.1-.38.32,0,.17.07.34.14.51.03.07.12.15.2.18.48.15.96.28,1.24.36"/>
    <path class="cls-23" d="M7.13,69.22s-.06,0-.1,0c-1.1.16-1.97-.26-2.68-1.07-.31-.35-.69-.61-1.12-.79-.14-.06-.35-.02-.51.04-.18.07-.2.37-.11.61.2.53.56.95,1,1.29.11.08.23.19.35.2.92.07,1.62.57,2.35,1.06.15.1.32.17.5.23.17.06.35.11.53.11.26,0,.53-.14.77-.08.25.06.46.29.69.44.19.13.36.29.56.4.4.23.82.39,1.3.36.74-.04,1.47-.05,2.13.39.14.09.35.12.53.12.46.02.91.05,1.34.24.25.11.55-.2.5-.47-.04-.23-.11-.45-.13-.67-.03-.33-.27-.45-.51-.59-.39-.22-.8-.17-1.21-.16-.52,0-1.01-.03-1.39-.44-1.53-.59-3.01-1.36-4.76-1.24"/>
    <path class="cls-23" d="M15.02,64.28s-.26.01-.49,0c-.35-.02-.64.09-.84.36-.26.36-.55.33-.95.23-.66-.17-1.35-.2-2.02-.32-.41-.07-.72-.29-1.01-.62-.82-.93-1.82-1.65-2.98-2.11-.13-.05-.35.04-.48.13-.08.05-.11.27-.07.37.24.57.28,1.26.99,1.55.26.1.4.37.39.68-.03.48.29.74.61,1,.18.15.34.07.46-.09.08-.1.12-.22.3-.19.36.06.72.1,1.08.14.13.02.3,0,.4.06.72.51,1.55.47,2.37.49.26,0,.51.16.77.24.75.24,1.51.36,2.29.32.48-.02.77-.28.81-.76.08-1.2-.01-1.54-1.63-1.48"/>
    <path class="cls-23" d="M21.64,81.12c-.02.24.05.46.23.62.41.35.83.7,1.25,1.05.03.03.04.08.07.12-.07.03-.16.11-.22.1-.26-.05-.52-.13-.78-.19-.03,0-.09.04-.11.07-.02.02-.02.08,0,.1.09.1.17.23.28.29.37.18.51.5.62.85.01.04,0,.11-.02.13-.07.05-.17.13-.22.11-.47-.16-.94-.34-1.42-.51-.47-.17-.94-.35-1.42-.49-.1-.03-.26.05-.36.13-.11.08-.04.36.12.47.3.21.6.42.91.61.62.38,1.28.73,1.88,1.14.32.21.65.33.98.47.34.14.6.17.87-.11.25-.27.54-.32.87-.16.41.19.58-.14.76-.38.13-.16.13-.41-.06-.47-.75-.26-1.06-.97-1.59-1.46-.03-.03-.05-.11-.04-.13.06-.05.14-.13.21-.12.37.03.73.08,1.09.14.43.07.92-.22,1.03-.66.03-.11-.04-.3-.13-.36-.26-.18-.54-.35-.83-.47-.68-.27-1.38-.49-2.06-.75-.63-.23-1.27-.12-1.91-.12h.01Z"/>
    <path class="cls-23" d="M31.57,72.56c.76.12,1.52.24,2.28.38.06,0,.12.13.13.21,0,.08-.04.17-.08.25-.28.53-.14.97.26,1.37.16.16.32.33.48.49.45.43.64.44,1.23.15.22-.11.37-.25.39-.51.08-.94.6-1.7,1.08-2.47.12-.18.32-.31.46-.48.15-.17.3-.34.42-.53.13-.19.22-.41.01-.62-.16-.16-.3-.36-.57-.29-.44.12-.88.23-1.32.35-.18.05-.37.07-.53.16-.47.26-.87.24-1.2-.24-.05-.08-.13-.13-.2-.19-.49-.4-.86-.29-.91.33-.04.51-.26.77-.74.8-.38.02-.72.16-1.01.38-.12.09-.13.32-.19.49l-.02-.02Z"/>
    <path class="cls-23" d="M35.85,87.5c.18,0,.37-.01.55-.03.26-.03.42-.19.43-.44,0-.34.09-.63.36-.85.34-.28.52-.62.49-1.08-.02-.21.15-.31.35-.33.56-.06,1.12-.44,1.7-.06.06.04.18,0,.27,0,.27,0,.51-.36.4-.59-.27-.59-.86-.94-1.44-.73-.45.16-.89.16-1.34.22-.72.09-1.44.2-2.16.32-.08.01-.2.07-.22.14-.28.71-.73.54-1.32.4-.61-.14-1.27-.04-1.91-.01-.46.03-.73.38-.7.85.02.47.32.8.75.81.13,0,.28,0,.41-.02.35-.06.71-.21,1.06-.2.36,0,.72.13,1.06.25.44.16.88.23,1.34.25.08,0,.2.07.21.12.01.07-.04.19-.11.23-.22.16-.46.29-.69.44-.03.02-.05.1-.04.12.04.07.09.16.15.17.13.03.27,0,.41,0v.02"/>
    <path class="cls-23" d="M13.73,84.44c-.46,0-.92-.02-1.38,0-.22.01-.52.03-.64.17-.33.37-.66.17-1.01.12-.75-.1-1.38-.47-1.97-.9-.77-.57-1.54-1.15-2.31-1.71-.33-.24-.69-.23-1.03-.03-.28.16-.43.59-.26.83.38.56.69,1.2,1.41,1.44.21.07.42.2.58.35.31.27.65.33,1.03.28.58-.07,1.08.04,1.47.54.22.29.49.56.9.58.58.03,1.12.43,1.74.14.24-.11.54-.08.8-.15.3-.08.72-.12.88-.33.48-.68,1.1-.51,1.72-.43.13.02.26.14.38.14.11,0,.28-.08.32-.17.05-.11.04-.31-.03-.39-.28-.31-.64-.52-1.08-.52-.5,0-1.01,0-1.51,0v.02Z"/>
    <path class="cls-23" d="M42.07,74.75c-.14,0-.32-.06-.5-.09-.26-.05-.53-.11-.8-.12-.1,0-.22.12-.29.22-.03.05,0,.2.05.24.24.2.47.43.75.56.24.11.53.12.8.17.36.06.79-.17.79-.54,0-.54.33-.71.71-.88.12-.05.27-.06.39-.11.54-.23.66-.51.48-1.07-.03-.09-.13-.16-.12-.24.06-.94-.56-1.25-1.31-1.46-.48-.13-.94-.34-1.43-.46-.13-.03-.33.1-.45.22-.05.05,0,.24.05.35.2.42.19.47-.21.48-.37,0-.73,0-1.1.02-.27.02-.39.4-.25.65.2.35.54.5.87.64.64.27,1.22.62,1.73,1.08.03.03,0,.16-.03.23-.01.04-.07.1-.14.11"/>
    <path class="cls-23" d="M57.85,48.2c.14-.21.32-.42.45-.66.13-.24.05-.54-.19-.74-.1-.08-.26-.15-.36-.13-.22.05-.44.16-.63.27-.35.21-.67.21-1.03.02-.47-.25-.88-.1-1.24.26-.56.54-1.02,1.18-1.76,1.52-.07.03-.15.13-.16.21-.02.17-.04.36.02.51.04.08.25.17.35.14.52-.16,1.04-.34,1.54-.54.17-.07.29-.22.45-.31.6-.36,1.02-.31,1.38.29.27.46.62.64,1.12.64.18,0,.37,0,.55,0,.36-.02.59-.18.6-.43,0-.32-.17-.52-.43-.63-.16-.07-.35-.09-.52-.16-.06-.03-.08-.14-.12-.25"/>
    <path class="cls-23" d="M35.96,80.64c.81-.14,1.61-.25,2.41-.43.36-.08.66-.3.79-.7.07-.22,0-.39-.16-.47-.4-.2-.83-.33-1.22-.57-.44-.26-.98-.2-1.46.02-.5.23-.99.49-1.57.41-.08-.01-.21,0-.26.06-.4.46-.97.46-1.48.61-.08.02-.15.11-.19.19-.1.18.07.24.18.27.95.33,1.93.54,2.95.58"/>
    <path class="cls-23" d="M12.66,74.71c-.25.09-.5.18-.74.28-.25.11-.47.26-.72.35-.23.08-.51.18-.49.4.01.18.24.39.42.5.42.27.87.5,1.31.73.53.27,1.05.54,1.6.77.56.24.96.03,1.13-.58.07-.26.13-.54.11-.8-.02-.21-.11-.47-.26-.6-.68-.56-1.51-.8-2.36-1.05"/>
    <path class="cls-23" d="M7.16,75.62c.09-.06.28-.1.3-.2.11-.37.33-.61.65-.82.36-.24.28-.68-.13-.86-.33-.15-.68-.28-1.04-.32-.78-.1-1.46-.35-2.09-.87-.62-.52-1.4-.85-2.11-1.25-.08-.04-.28.01-.35.09-.07.09-.12.28-.07.37.13.23.31.46.51.63.2.17.45.31.7.42.4.17.7.43.91.8.55.96,1.49,1.44,2.41,1.96.07.04.18.04.3.06"/>
    <path class="cls-23" d="M28.28,92.45c0-.51,0-1.01,0-1.52,0-.28.05-.58-.05-.82-.32-.8-.21-1.63-.26-2.45-.01-.14.03-.29-.01-.41-.38-1.07-.22-2.18-.27-3.27,0-.08-.07-.16-.11-.24-.04.08-.11.16-.12.24-.02.23,0,.46-.01.69-.02.87.05,1.73-.23,2.59-.16.5-.15,1.09.09,1.62.17.4.19.83.03,1.21-.25.59-.2,1.19-.12,1.77.07.49.1.95-.02,1.43-.11.45-.08.9.28,1.29.17.19.22.49.34.73.01.02.19.01.21-.03.09-.15.21-.32.22-.48.02-.78.01-1.56.01-2.35h.03Z"/>
    <path class="cls-23" d="M51.99,82.28c.18.19.26.35.36.37.16.04.35.02.51-.02.42-.13.79-.12,1.19.09.45.23.92.41,1.39.57.78.26,1.5-.25,1.52-1.08,0-.2-.14-.41-.21-.62-.65-.08-.63-1.04-1.34-1.04-.18,0-.38.02-.53.11-.85.45-1.69.92-2.53,1.39-.12.07-.24.14-.38.23"/>
    <path class="cls-23" d="M53.58,66.48c-.6-.06-1.19.13-1.71.57-.14.12-.31.19-.47.28-.42.26-.84.33-1.31.14-.16-.07-.34-.11-.52-.12-.07,0-.18.07-.22.13-.04.06-.05.18-.01.25.06.12.14.26.26.31.71.34,1.35.76,1.88,1.35.18.19.51.09.5-.17-.01-.5.19-.69.67-.86.72-.26,1.36-.75,2.18-.78.13,0,.3-.21.37-.36.03-.07-.07-.25-.15-.35-.18-.21-.41-.38-.7-.39-.23,0-.46,0-.76,0"/>
    <path class="cls-23" d="M12.3,90.54c.12-.05.34-.1.53-.21.26-.13.27-.53.03-.69-.11-.08-.22-.18-.35-.21-1.08-.25-2-.82-2.89-1.45-.33-.23-.66-.28-1.03-.25-.32.02-.48.23-.58.5-.15.4.14,1.23.51,1.43.2.11.41.25.62.27.9.11,1.78.31,2.65.58.13.04.27.02.51.03"/>
    <path class="cls-23" d="M52.44,53.55c1.45.26,2.56-.47,3.64-1.27.17-.12.29-.35.35-.56.13-.41-.13-.7-.55-.74-.53-.06-1,.19-1.44.37-1,.43-1.97.96-2.94,1.47-.15.08-.27.24-.4.37-.03.03-.06.09-.05.12.04.07.09.16.15.17.41.03.82.05,1.23.07"/>
    <path class="cls-23" d="M52.49,57.19c.34-.09.72-.12,1.02-.29.59-.32,1.19-.42,1.85-.32.38.06.69-.06.99-.35.29-.28.66-.47.99-.71.14-.1.1-.38-.05-.47-.12-.06-.24-.15-.36-.16-.27-.01-.58-.05-.81.05-.57.26-1.16.25-1.75.23-.4-.02-.7.14-.97.41-.32.32-.66.63-1.03.9-.19.14-.63.04-.5.45.04.13.38.16.63.25"/>
    <path class="cls-23" d="M6.16,79.15c.9.95,2.12,1.37,3.25,1.94.32.16.77.06.87-.15.16-.3.04-.72-.28-.94-.97-.67-1.95-1.32-3.04-1.8-.53-.23-.67-.16-1.02.47.24.08.21.29.22.48"/>
    <path class="cls-23" d="M57.19,85.6c.38-.32.82-.57,1.24-.85.19-.12.38-.25.59-.3.35-.08.42.28.62.44.1.08.25.09.37.15.29.16.4.38.3.66-.06.17-.13.37-.26.46-.63.45-1.31.82-2.06,1.02-.55.14-1.1-.31-1.17-.99.1-.16.19-.44.38-.59M57.49,86.13c-.05.03-.09.15-.07.21.03.07.14.18.18.17.24-.09.47-.21.7-.32.02-.01.03-.1,0-.13-.05-.06-.12-.11-.22-.19-.18.08-.4.16-.59.26"/>
    <path class="cls-23" d="M5.85,58.5c.02.07.03.27.13.41.29.41.62.79,1.11,1,.25.11.48.23.78.09.2-.09.44-.09.67-.12.33-.05.42-.32.52-.57.1-.3-.06-.59-.27-.71-.59-.34-1.22-.63-1.84-.92-.12-.05-.27-.03-.41-.02-.37.02-.67.34-.69.84"/>
    <path class="cls-23" d="M15.98,90.29c.12-.06.29-.11.44-.21.33-.22.33-.73,0-.93-.12-.07-.24-.17-.36-.19-.64-.08-1.06-.49-1.49-.91-.19-.19-.45-.3-.69-.44-.13-.08-.36.06-.43.22-.14.31-.18.64,0,.92.47.7,1.07,1.25,1.92,1.46.17.04.36.04.61.06"/>
    <path class="cls-23" d="M31.58,72.58c-.76.06-1.51.21-2.2.55-.23.11-.34.31-.3.55.02.16.1.44.2.46.52.11.86.48,1.25.79.23.18.52.17.76.01.25-.17.43-.46.29-.69-.28-.45-.1-.85-.01-1.28.03-.13,0-.27,0-.41l.02.02Z"/>
    <path class="cls-23" d="M52.54,63.16c-.09.02-.33.03-.52.14-.51.3-1,.62-1.49.96-.21.15-.15.57.1.7.12.06.25.13.37.14.55.02,1.09.03,1.61.26.15.07.37.04.54-.02.09-.03.15-.2.2-.32.01-.03-.02-.09-.05-.12-.37-.35-.44-.72-.19-1.19.13-.26-.13-.55-.57-.55"/>
    <path class="cls-23" d="M22.51,87.95c0,.09-.01.14,0,.18.26.44.59.81,1.07,1,.54.21,1.1.39,1.66.57.27.08.5-.04.69-.31.12-.17.12-.39-.03-.49-.58-.4-1.07-.96-1.89-.91-.39.02-.79-.15-1.19-.2-.1-.01-.21.11-.3.16"/>
    <path class="cls-23" d="M15.47,95.54c.31-.03.42,0,.49-.05.15-.09.32-.17.4-.31.12-.22.02-.46-.18-.6-.49-.33-.99-.63-1.49-.93-.07-.04-.16-.07-.25-.1-.26-.08-.62.02-.74.2-.16.22-.03.59.28.81.29.22.59.42.85.66.26.23.53.33.65.31"/>
    <path class="cls-23" d="M46.5,64c0,1.74,0,3.48,0,5.22,0,.04,0,.09,0,.14-.01.64.36,1.22.28,1.88-.06.59-.01,1.19,0,1.78,0,.08.07.16.12.24.04-.07.12-.14.13-.22.02-.18.02-.37.02-.55,0-.87,0-1.74-.02-2.61,0-.45.01-.9-.19-1.34-.11-.23-.06-.54-.07-.81,0-1.05,0-2.11,0-3.16,0-.23-.02-.46-.29-.56h.02Z"/>
    <path class="cls-23" d="M56.75,64.55c1.06.11,1.82-.26,2.52-.8.09-.07.17-.26.13-.35-.06-.16-.19-.31-.33-.4-.09-.06-.27-.04-.38.01-.86.42-1.71.85-2.56,1.28-.03.02-.09.09-.08.1.04.06.09.14.15.15.23.02.46,0,.55,0"/>
    <path class="cls-23" d="M6.16,79.15c0-.19.03-.4-.22-.48-.47-.18-.88-.45-1.24-.81-.33-.32-.72-.54-1.2-.57-.08,0-.2.05-.22.11-.04.11-.03.24-.03.36,0,.04.04.09.07.11.71.56,1.38,1.17,2.2,1.57.27.13.54.04.64-.29"/>
    <path class="cls-23" d="M41.74,83.92c.78,0,1.07-.52.74-1.19-.24-.46-.39-.54-.85-.4-.13.04-.25.11-.38.14-.31.07-.7.11-.71.49-.02.42.45.88.85.94.13.02.27.02.36.03"/>
    <path class="cls-23" d="M54.78,78.07c-.09,0-.18,0-.27,0-.58.02-.83.12-.79.32.07.34.32.54.59.69.49.28,1.27.14,1.74-.32.07-.07.09-.26.06-.37-.03-.11-.15-.26-.25-.27-.35-.06-.72-.06-1.07-.08,0,0,0,.02,0,.03"/>
    <path class="cls-23" d="M36.55,90.53c-.76-.05-1.32.24-1.62.96-.07.17-.17.33-.21.5-.03.11,0,.25.05.35.07.12.27.03.4-.19.03-.04.04-.08.06-.12.12-.19.2-.42.37-.56.2-.16.41.07.62.11.13.02.27.02.4,0,.3-.06.52-.44.45-.74-.05-.21-.22-.31-.53-.31"/>
    <path class="cls-23" d="M21.63,81.14c-.2-.47-.42-.92-.81-1.26-.24-.2-.52-.36-.79-.52-.19-.11-.35-.04-.48.11-.12.15-.16.33-.02.49.09.11.17.22.28.3.55.4,1.12.78,1.83.85h-.01Z"/>
    <path class="cls-23" d="M46.64,87.62s.06-.05.07-.09c.03-.08.05-.17.06-.26.08-.72-.15-1.46.2-2.16-.08-.4-.16-.8-.24-1.19-.01-.05-.1-.08-.15-.12-.02.04-.06.08-.07.12-.03.64.07,1.31-.11,1.91-.2.63.1,1.14.13,1.71,0,.03.06.06.1.09"/>
    <path class="cls-23" d="M20.05,87.24s.01.09.03.13c.27.4.68.57,1.13.65.1.02.27-.08.34-.17.06-.1.09-.28.04-.38-.24-.42-.92-.62-1.43-.44-.06.02-.08.14-.12.21"/>
    <path class="cls-23" d="M54.9,85.38s.03.09.06.09c.43.1.85.19,1.29.27.05,0,.15-.12.16-.19.03-.17.04-.36,0-.53-.04-.19-.22-.3-.4-.27-.39.08-.79.17-1.07.5-.03.03-.03.08-.04.13"/>
    <path class="cls-23" d="M39.86,86.96c.09-.01.18-.01.26-.05.08-.03.19-.1.2-.16.02-.12.01-.29-.06-.37-.32-.34-.74-.51-1.2-.53-.07,0-.14.08-.21.13.24.31.48.63.74.93.04.05.17.04.26.05"/>
    <path class="cls-23" d="M50,76.46c-.32.19-.59.33-.83.51-.05.04-.04.26.03.33.27.31.63.31.97.14.11-.06.22-.31.19-.44-.04-.19-.21-.35-.36-.55"/>
    <g>
      <path class="cls-3" d="M21.92,19c-.08.04-.22.08-.31.17-.34.33-.4.95-.06,1.22.36.29.62.64.92.97.38.44.82.49,1.19.16.49-.44.61-1.01.28-1.45-.05-.07-.11-.16-.18-.2-.55-.3-1.1-.59-1.66-.87-.03-.02-.09,0-.18,0"/>
      <path class="cls-3" d="M36.86,26.16c-.21.05-.35.05-.47.11-.28.15-.55.32-.8.51-.13.1-.27.26-.29.41-.02.21.51.63.69.57.38-.12.77-.25,1.13-.43.23-.11.31-.5.17-.73-.11-.18-.3-.31-.43-.44"/>
      <path class="cls-3" d="M18.6,27.94c-.01-.12-.02-.21-.03-.3-.02-.22-.16-.32-.35-.34-.2-.02-.36.07-.42.26-.1.32-.1.64.18.88.1.08.24.16.35.15.09-.01.2-.16.24-.26.04-.12.02-.27.03-.37"/>
    </g>
    <path class="cls-23" d="M23,93.5c.07-.04.17-.06.21-.13.22-.36-.04-.85-.46-.86-.07,0-.17.06-.21.12-.23.36.02.83.46.86"/>
    <path class="cls-23" d="M36.63,88.1c.06.12.09.21.14.27.26.31.65.17.82-.25.03-.06-.02-.21-.06-.23-.16-.06-.34-.13-.49-.09-.15.04-.28.2-.41.3"/>
    <g>
      <path class="cls-25" d="M89.29,67.34c-.6-.03-1.19-.03-1.79-.05-.6-.01-.62-.03-.7-.59-.04-.27-.07-.55-.15-.8-.09-.28-.09-.53.03-.8.24-.53.24-1.11.09-1.62-.25-.87-.32-1.82-.82-2.6-.18-.29-.06-.52.02-.77.18-.57.34-.63.88-.32.47.28.77.24,1.16-.18.06-.06.04-.27-.02-.35-.19-.27-.43-.49-.77-.53-.37-.04-.41-.3-.4-.6,0-.14,0-.28.02-.41.04-.31.23-.49.52-.57.44-.12.89-.21,1.32-.34.1-.03.25-.16.25-.25,0-.1-.13-.21-.22-.29-.13-.12-.32-.2-.43-.34-.35-.46-.81-.56-1.35-.5-.27.03-.55.02-.83,0-.13,0-.32-.03-.38-.12-.38-.6-1.1-.62-1.6-1.01-.68-.53-1.4-1.03-2.07-1.57-.36-.29-.69-.43-1.12-.17-.1.06-.29.06-.38,0-.46-.31-.93-.61-1.32-.98-.86-.83-1.68-1.7-2.53-2.55-.22-.22-.42-.52-.8-.41-.31.09-.52.57-.41,1.07.09.39.26.78.48,1.12.5.77,1.06,1.49,1.58,2.25.06.09.06.27.02.37-.09.23-.37.35-.57.26-.25-.11-.49-.25-.74-.36-.12-.05-.26-.08-.39-.11-.19-.04-.42.25-.4.46.04.3.21.53.45.67.78.43,1.32,1.13,1.97,1.7.65.57,1.35,1.1,2,1.68.15.14.42.17.64.2.25.04.4-.13.52-.35.13-.24.39-.22.61-.13.38.16.75.34,1.12.54.33.18.68.25,1.06.24.2,0,.39-.06.44-.25.04-.16.03-.39-.06-.52-.4-.59-.84-1.1-1.68-.92-.33.07-.64-.06-.87-.31-.25-.26-.51-.53-.76-.8-.03-.03.01-.2.05-.21.44-.12.87-.25,1.32-.32.27-.04.57,0,.76-.24.3-.36.56-.14.85,0,.45.22.48.78.84,1.06.36.28.74.53,1.09.82.19.16.24.44.13.63-.24.38-.19.79-.23,1.2-.06.54-.17,1.08-.27,1.61-.1.53-.16.56-.72.5-.59-.07-1.15-.12-1.65-.55-.48-.41-1.2-.42-1.7-.85-.12-.1-.36-.08-.54-.08-.37,0-.74.01-1.1.02-.48.01-.92.03-.98-.65-.02-.17-.29-.36-.49-.44-.5-.22-1.01-.42-1.54-.58-.34-.1-.56-.25-.69-.59-.08-.2-.22-.44-.4-.54-.8-.46-1.45-1.1-2.16-1.68-.28-.23-.68-.07-.74.28-.07.51-.08,1,.36,1.39.38.34.71.72,1.06,1.08.36.37.74.68,1.31.61.21-.02.44.1.65.18.39.14.77.28,1.15.45.11.05.19.18.28.27-.09.06-.18.17-.28.18-.55.04-1.12-.03-1.64.12-.41.12-.7.05-1.03-.11-.5-.25-.96-.54-1.34-.95-.25-.27-.5-.54-.79-.77-.36-.28-.75-.55-1.25-.51-.51.05-1,.05-1.48-.18-.11-.05-.29-.05-.4,0-.28.14-.66.16-.73.55-.08.39.19.59.48.75.68.38,1.36.76,2.04,1.14.29.16.56.29.9.08.09-.05.29-.02.38.05.62.51,1.44.58,2.1.99.66.42,1.4.66,2.17.84.17.04.34.14.5.24.98.56,2.06.71,3.15.82.33.03.61.1.89.3.52.39,1.18.48,1.79.65.19.05.43-.09.64-.16.46-.16.53-.12.69.33.16.48.32.95.48,1.43.1.31-.08.51-.42.46-.18-.03-.39-.03-.53-.13-1.14-.85-2.52-1.04-3.83-1.44-.56-.18-1.15-.3-1.72-.45-.84-.23-1.67-.44-2.52-.04-.26.13-.52.1-.8.03-.66-.17-1.33-.33-1.93-.69-.49-.3-1.04-.35-1.6-.29-.13.01-.26.08-.38.14-.24.13-.31.52-.14.72.06.07.12.15.19.2.51.38,1,.82,1.56,1.12.62.33,1.18.71,1.65,1.22.14.15.35.11.45-.07.07-.12.12-.24.17-.37.21-.5.37-.53.74-.13.09.1.18.21.25.32.13.21.13.44,0,.65-.13.21-.35.37-.57.29-.5-.18-.97-.14-1.46.03-.27.09-.52-.05-.75-.24-.7-.59-2.98-2.02-3.71-2.33-.25-.11-.52-.17-.79-.21-.34-.04-.63.07-.82.38-.14.24-.29.47-.42.71-.39.68-.29,1.4.34,1.82.57.37,1.1.82,1.79,1.02.26.07.48.26.72.38.49.26.98.29,1.41-.07.26-.22.46-.2.74-.06.49.24,1.01.42,1.52.63.25.11.52.21.73.37.88.71,1.95.97,2.98,1.35.46.17.8.08,1.16-.14.18-.1.26-.25.17-.46-.04-.08-.09-.17-.1-.25-.04-.28.16-.59.42-.61.27-.02.55,0,.81.06.44.1.87.26,1.31.38.26.07.54-.09.66-.36.1-.24.07-.51-.15-.6-.45-.19-.57-.52-.68-.95-.15-.6-.5-1.04-1.2-1.16-.53-.09-1.03-.34-1.55-.52-.04-.01-.07-.05-.11-.08.08-.04.17-.11.24-.1.49.09.99.18,1.47.3,1.25.3,2.47.65,3.6,1.3.4.23.66.45.65.94-.02.83.23,1.62.4,2.42.07.31.14.63.14.94.03.9-.07.99-1.16.99-.05,0-.24.01-.42-.04-.11-.03-.28-.14-.29-.24-.07-.47-.37-.54-.77-.61-1.12-.2-2.22-.53-3.37-.55-.58,0-1.14-.12-1.73,0-.67.14-1.34,0-2.02-.22-.99-.34-1.93-.84-2.99-.99-.31-.04-.63-.11-.94-.1-.45.02-.94.47-.86.89.06.32.04.51-.19.71-.72.63-.5,1.18.33,1.54.88.38,1.74.83,2.64,1.17.41.16.9.12,1.34.18.06,0,.13.13.13.2,0,.07-.08.15-.14.21-.03.03-.08.04-.12.04-.41-.03-.83-.01-1.22-.12-.57-.16-1.14-.33-1.63-.71-.21-.16-.48-.25-.74-.33-.59-.19-1.16.04-1.28.64-.17.84-.76.98-1.41,1.04-.55.05-1.09.03-1.61.25-.22.09-.55.02-.8-.07-.36-.13-.71-.2-1.07-.11-.14.03-.29.2-.36.34-.05.09.02.26.07.38.03.08.11.15.18.2.86.53,1.7,1.08,2.68,1.37.48.14.93.32,1.35.62.6.43,1.36.49,2.07.65.3.07.66.05.89-.24.04-.05.06-.21.04-.22-.29-.14-.57-.32-.87-.37-.56-.08-1.04-.36-1.52-.62-.04-.02-.07-.18-.04-.22.37-.4.52-.96,1.02-1.28.76-.48,1.59-.52,2.39-.3.55.15,1.07.16,1.62.22.5.05.99.17,1.47.31.19.05.18.25.11.46-.15.47-.07.57.38.59.18,0,.38.04.55,0,.99-.22,2-.23,3-.29.16,0,.32-.16.46-.26.14-.11.11-.42-.05-.47-.69-.21-1.24-.72-2-.8-.62-.07-1.21-.39-1.81-.62-.37-.14-.4-.17-.24-.61.12-.33,0-.53-.2-.73-.48-.46-1.1-.64-1.69-.9-.08-.04-.17-.04-.26-.08-.03-.01-.06-.06-.08-.08.04-.02.08-.06.12-.06.36-.03.72-.07,1.09.08.24.1.57.2.79.12.63-.25,1.26-.19,1.9-.21.09,0,.19,0,.27-.02.36-.05.65-.38,1.05-.23.73.26,1.5.4,2.17.82.06.04.14.16.13.22-.03.12-.09.28-.18.34-.15.09-.33.15-.51.16-.32.03-.65,0-.97.03-.46.04-.74.35-.78.82-.03.36.11.67.44.77.65.21,1.31.41,1.97.56.33.07.66-.11.84-.37.25-.36.49-.66.97-.66.4,0,.74-.23,1.2-.1.94.28,1.9.13,2.82-.26.35-.15.64-.36.76-.74.07-.22.13-.43.21-.65.08-.22.63-.21.33-.59-.19-.23-.41.09-.62.08-.11,0-.3-.13-.3-.2,0-.27.04-.54.09-.81.06-.39-.16-.62-.53-.54-.08.02-.16.08-.24.12-.19.11-.36.06-.49-.1-.11-.14-.2-.31-.28-.47-.19-.36-.75-.54-.7-.97.06-.58.3-1.14.47-1.7.01-.04.07-.1.09-.09.07.03.15.06.18.12.09.16.21.33.22.5.04.62.48.86.95,1.06.12.05.28.11.4.08.61-.18,1.24-.32,1.76-.73.1-.08.17-.21.23-.33.1-.18-.07-.54-.26-.55ZM83.09,61.08c-.04.06-.1.15-.16.16-.23.02-.45,0-.9,0-.04,0-.31-.04-.56-.11-.05-.01-.1-.15-.09-.22.03-.21.31-.49.44-.44.42.15.82.32,1.23.49.03.01.06.1.04.12ZM77.19,66.7c-.28.07-.53.03-.71-.22-.02-.03-.04-.08-.06-.12.04-.03.07-.07.11-.08.28-.07.53-.02.72.22.02.03.06.09.05.12-.01.03-.06.07-.1.08ZM85.94,65.12c-.01.08-.09.14-.14.21-.08-.02-.2-.02-.24-.08-.15-.22-.28-.45-.37-.69-.04-.1.02-.26.07-.37.02-.06.18-.12.2-.1.29.28.53.59.48,1.03Z"/>
      <path class="cls-33" d="M95.36,19.39c-.15-.13-.35-.16-.5-.03-.2.18-.38.39-.55.61-.17.21-.29.47-.46.67-.35.41-.78.62-1.34.54-.53-.08-.9.15-1.02.69-.09.41-.32.61-.73.72-.18.05-.35.27-.47.45-.45.64-.85,1.31-1.68,1.54-.2.05-.34.29-.53.43-.18.14-.36.28-.56.38-.56.29-1.19.16-1.62-.31-.22-.24-.27-.97,0-1.15.6-.4.92-1,1.31-1.55.1-.14.29-.29.44-.28.76.01,1.17-.5,1.54-1.01.38-.52.52-1.16.63-1.8.05-.3-.11-.52-.4-.65-.18-.08-.35-.14-.5,0-.79.76-1.63,1.48-2.12,2.51-.19.41-.48.77-.75,1.14-.06.08-.25.14-.33.11-.11-.05-.23-.2-.23-.31,0-.55.01-1.1.04-1.64.02-.36.12-.72.14-1.08.02-.46,0-.9.21-1.34.13-.27.06-.63.09-.95.02-.22,0-.48.11-.66.15-.29.4.01.6-.02.17-.03.34-.14.51-.2.12-.04.28-.13.37-.08.45.23.78.08,1.11-.23.35-.32.36-.72.34-1.14,0-.09,0-.19,0-.28h.01c0-.14,0-.28,0-.41-.01-.52-.53-.85-.95-.55-.47.34-.91.75-1.32,1.16-.42.42-.8.88-1.22,1.3-.36.36-.87.37-1.24.07-.25-.2-.46-.45-.7-.66-.39-.35-.53-.35-1.07.01-.15.1-.25.25-.42.02-.19-.26-.39-.51-.62-.73-.24-.23-.69-.13-.75.23-.06.41-.32.3-.55.39-.43.17-.55.49-.37.86.22.45.46.9.69,1.35.15.29.14.29-.28.36-.13.02-.29,0-.4.07-.17.09-.28.27-.22.46.08.26.17.55.35.73.72.74,1.23,1.59,1.65,2.52.07.15.24.28.4.35.1.04.27-.03.38-.08.25-.11.45-.06.63.12.3.29.6.57.88.87.06.06.1.17.08.25-.04.15-.17.15-.31.11-.22-.05-.45-.09-.68-.09-.35,0-.62-.13-.86-.37-.46-.48-1.01-.76-1.7-.75-.53,0-.95-.28-1.33-.64-.36-.36-.71-.72-1.09-1.05-.12-.1-.34-.16-.49-.13-.23.05-.42.24-.42.48,0,.27.02.57.14.79.69,1.27,1.63,2.2,3.19,2.24.18,0,.39.01.53.11.79.54,1.72.88,2.4,1.58.35.36.89.59,1.1,1.01.2.41.04,1,.14,1.48.18.84.26,1.72.6,2.52.02.06.15.11.22.11.07,0,.19-.09.19-.15.05-.73.1-1.46.12-2.19,0-.38.1-.59.53-.62.28-.03.43-.24.39-.59-.05-.47,0-.51.4-.49.97.05,1.77-.32,2.55-.84.85-.56,1.57-1.27,2.35-1.89,1.02-.8,1.86-1.77,2.82-2.61.36-.31.6-.69.77-1.13.1-.27-.03-.45-.21-.6ZM84.69,18.14c-.28.03-.55.06-.76.27-.06.07-.1.15-.17.26.04.1.06.25.14.35.22.25.42.49.4.85-.01.13-.02.29-.1.37-.07.07-.25.07-.36.03-.43-.18-.81-.42-1.11-.79-.23-.28-.62-.49-.58-.9.03-.24.27-.46.39-.7.1-.2.13-.44.22-.64.3-.66.7-.76,1.25-.32.14.11.29.23.43.34.14.12.28.23.41.36.25.27.2.48-.15.52Z"/>
      <path class="cls-29" d="M94.45,33.45c-.2-.11-.38-.03-.49.12-.19.25-.38.52-.5.81-.34.84-.96,1.45-1.59,2.05-.18.17-.38.22-.62.1-.62-.29-1.25-.21-1.88-.03-.84.25-1.65.54-2.33,1.13-.27.23-.66.16-.85-.12-.15-.23-.3-.47-.38-.72-.15-.42.01-.82.51-.95.48-.13.99-.2,1.41-.5.2-.14.19-.46-.03-.56-.08-.04-.18-.04-.27-.06-.3-.06-.48-.24-.55-.54,0-.05-.02-.09-.02-.14-.05-.49-.56-.58-.78-.91-.22-.35.04-.84-.29-1.17-.09-.09-.18-.21-.32-.05-.07.08-.12.35-.24.11-.25-.48-.6-.91-.6-1.51,0-.45-.26-.66-.67-.74-.32-.06-.64-.07-.95-.14-.44-.1-.53-.29-.38-.77.07-.23.14-.47-.01-.66-.53-.63-1.07-1.27-1.85-1.61-.24-.1-.53-.13-.79-.14-.25,0-.41.19-.51.4-.09.19,0,.36.13.49.51.49.81,1.09,1,1.77.11.4.32.75.73.96.2.1.39.25.54.42.33.4.76.64,1.22.87.28.14.52.36.77.56.04.04.07.18.03.22-.05.06-.17.1-.24.08-.26-.05-.54-.11-.78-.22-.5-.22-.99-.47-1.49-.7-.06-.03-.19-.02-.22.02-.04.05-.05.18-.01.24.31.4.67.73,1.09,1.03.52.37.95.86,1.41,1.3.03.03.06.11.04.12-.06.05-.13.12-.2.13-.18.02-.37,0-.56,0-.58.13-1.07-.02-1.46-.51-.35-.44-.83-.71-1.35-.92-.43-.17-.83-.38-1.03-.85-.16-.36-.54-.49-.87-.64-.2-.09-.35-.02-.5.11-.18.17-.31.38-.21.61.1.25.27.47.42.7.73,1.07,1.52,2.08,2.87,2.42.21.05.32.39.2.58-.12.2-.28.36-.39.57-.05.1-.05.3.01.38.62.72,1.06,1.61,1.94,2.11.25.15.39.49.58.74.23.3.51.52.92.53.27,0,.59,0,.79.15.37.28.58.69.63,1.18.01.13.04.26.07.4,0,.03.07.07.08.06.04-.02.09-.07.09-.1.04-1.08.71-1.52,1.67-1.65.38-.05.6-.2.6-.59,0-.48.26-.79.64-.98.82-.4,1.64-.82,2.5-1.12.51-.18,1.08-.16,1.35-.78.07-.17.37-.25.57-.34.94-.45,1.4-1.29,1.77-2.2.07-.16-.11-.43-.33-.55ZM84.86,38.12c-.02.13-.08.24-.12.36-.08-.03-.18-.04-.25-.1-.35-.28-.71-.57-1.04-.87-.04-.04-.04-.14-.03-.22,0-.02.07-.05.12-.06.36-.05.72-.06,1.07-.15.24-.06.22.1.24.21.03.13,0,.27,0,.41h.02c0,.14.02.28,0,.41Z"/>
      <path class="cls-31" d="M75.69,36.17c.4.5.82.98,1.25,1.46.15.17.33.31.51.44.23.16.53.32.43.62-.08.24-.4.1-.62.16-.17.04-.38.11-.47.24-.24.35-.47.64-.91.75-.07.02-.16.37-.09.47.29.46.65.86,1.19,1.1.79.36,1.51.84,2.35,1.11.51.17.94.55,1.42.8.52.26,1.01.59,1.65.62.34.01.66.31,1,.42.36.12.72.09,1.02-.21.1-.1.2-.19.31-.28.36-.28.49-.65.46-1.09,0-.14,0-.28,0-.41h-.04c0-.28.02-.55,0-.82-.07-.58-.51-1.06-1.09-1.03-.79.04-1.37-.31-2.03-.67-1.13-.62-2.02-1.58-3.13-2.21-.18-.1-.29-.34-.42-.53-.39-.57-.76-1.14-1.15-1.71-.35-.53-.85-.82-1.46-.94-.17-.04-.36,0-.54.04-.25.06-.46.46-.34.66.21.35.43.7.69,1.02ZM79.19,39.78c.35.19.61.51,1.09.5.89,0,1.46.6,2.02,1.2.03.03.04.09.03.13-.03.08-.07.15-.14.28-.5-.16-1.05-.24-1.49-.51-.61-.38-1.13-.9-1.69-1.37-.04-.04-.04-.14-.06-.21.08-.01.19-.06.24-.03Z"/>
      <path class="cls-32" d="M74.37,45.18c.43.81.94,1.57,1.43,2.34.3.46.83.73,1.36.76.39.01.51-.2.55-.51.03-.22.18-.33.38-.24.42.18.82.41,1.24.61.2.1.41.2.62.29.79.32,1.16.09,1.33-.77.03-.12.07-.33.13-.35.35-.06.72-.13,1.06-.08.19.03.39.25.51.43.23.35.49.66.88.83.19.08.37.05.49-.12.07-.1.14-.27.1-.36-.13-.29-.28-.59-.49-.81-.84-.91-1.71-1.81-2.8-2.43-.54-.31-.92-.75-1.35-1.16-.45-.43-1.01-.39-1.54-.44-.36-.03-.68.44-.57.79.08.25.24.48.37.72.21.38.12.95-.21,1.25-.03.03-.19-.02-.21-.07-.27-.63-.52-1.27-.78-1.9-.07-.16-.16-.33-.28-.46-.12-.14-.3-.22-.49-.09-.15.1-.28.25-.44.32-.09.04-.3.03-.34-.04-.21-.3-.37-.63-.57-.94-.15-.23-.51-.34-.73-.25-.29.11-.54.5-.43.78.24.64.45,1.3.78,1.9Z"/>
      <path class="cls-30" d="M84.06,80.35c-.48-.14-.99-.19-1.46-.34-.65-.2-1.31-.29-1.93-.65-.53-.3-1.19-.46-1.85-.43-.32,0-.65,0-.97,0-.6.02-1.12-.21-1.42-.68-.36-.55-.91-.53-1.42-.67-.79.31-1.63.21-2.45.26-.13,0-.27.08-.38.15-.2.13-.32.32-.3.58.02.26.17.43.39.52.16.07.35.11.53.11.92-.05,1.83.13,2.72.32.6.13,1.15.27,1.66-.19.17-.15.39-.08.46.09.22.57.74.7,1.22.78,1.18.18,2.29.63,3.44.88.44.1.9.13,1.44.21.17-.06.44-.13.68-.25.06-.03.1-.27.04-.34-.1-.14-.25-.29-.41-.34Z"/>
      <path class="cls-26" d="M93.44,45.57c-.13-.37-.62-.45-.87-.12-.21.29-.37.62-.55.94-.28.53-.68.85-1.32.76-.38-.05-.7.05-1.04.22-.64.33-1.35.5-1.89,1.05-.28.29-.71.36-1.15.38-.6.03-.68.16-.66.81,0,.09.01.23.03.37.02.25.14.43.4.48.22.04.5.02.65.14.69.55,1.39.2,2.08.07.29-.05.37-.35.2-.62-.04-.08-.11-.15-.16-.22-.14-.17-.09-.35.03-.49.12-.14.24-.3.4-.37.49-.2.83-.56,1.16-.94.18-.2.39-.39.62-.53.39-.25.8-.44,1.2.02.16.18.41.25.63.13.35-.19.62-.81.53-1.19-.08-.31-.19-.61-.3-.91Z"/>
      <path class="cls-27" d="M71.29,82.35c-.47-.15-.95-.31-1.44-.4-1.65-.32-3.33-.51-4.95-1-.28-.09-.52-.07-.79.06-.33.16-.68.26-1.01.42-.15.07-.28.22-.38.36-.19.27-.1.57.2.66.78.23,1.57.45,2.37.66.48.12.97.21,1.38.3.5-.07.92-.09,1.31-.18.77-.17,1.54-.29,2.29,0,.47.19.79.01,1.09-.32.17-.18.14-.49-.08-.56Z"/>
      <path class="cls-28" d="M71.87,49.81c-.04.28.06.54.26.75.8.82,1.61,1.64,2.41,2.46.06.06.15.11.23.14.08.02.21.04.25,0,.08-.09.2-.26.17-.34-.16-.38-.34-.74-.55-1.09-.16-.27-.38-.51-.57-.77-.14-.2-.18-.41.02-.61.33-.33.33-.76.25-1.17-.24-1.22-.87-2.21-1.88-2.93-.17-.12-.42-.16-.49-.18-.41-.02-.6.11-.66.35-.02.09,0,.19-.03.27-.2.55-.15,1.06.15,1.56.29.48.51.97.42,1.56Z"/>
      <path class="cls-10" d="M74.16,82.29c.17-.08.38-.16.56-.27.19-.12.22-.47.05-.6-.18-.14-.37-.28-.57-.36-1.22-.51-2.43-1.03-3.72-1.32-.31-.07-.6-.2-.9-.31-.6-.21-1.2-.43-1.8-.63-.55-.18-.96.09-1.31.47-.18.19-.1.61.14.71.84.34,1.68.69,2.54,1.01.25.09.54.15.8.13.81-.06,1.52.17,2.23.55.4.22.84.35,1.27.5.21.07.45.08.73.13Z"/>
      <path class="cls-11" d="M92.74,62.32c.06-.05.11-.16.11-.24,0-.13.01-.32-.06-.38-.13-.09-.37-.19-.48-.13-.44.23-.89.46-1.17.91-.25.41-.56.46-1.05.27-.81-.32-1.62-.18-2.29.43-.08.07-.08.25-.07.38,0,.06.13.15.21.15.37.02.73,0,1.1,0v.03c.32,0,.64-.02.96,0,.49.04.71.37.53.84-.18.47-.25.85.24,1.2.14.1.13.41.18.62.06.25.17.31.35.16.49-.42.9-.89,1.2-1.48.27-.52.36-1,.09-1.54-.21-.43-.31-.86.14-1.22Z"/>
      <path class="cls-7" d="M91.36,51.39c-.47.28-1,.5-1.37.88-.33.34-.65.45-1.08.44-.37,0-.73-.02-1.1-.02-.79.01-1.54-.1-2.16-.68-.2-.18-.53-.06-.68.21-.27.48-.11,1.11.4,1.25.58.16,1.11.4,1.57.79.03.03.08.03.13.04.08-.02.2-.02.25-.07.4-.39.87-.47,1.39-.41.09.01.18,0,.27,0,1.4,0,2.27-.8,2.9-1.94.05-.09,0-.26-.05-.36-.1-.17-.29-.23-.47-.13Z"/>
      <path class="cls-6" d="M90.33,28.08c-.13.06-.46.11-.59.3-.44.6-1.08.88-1.73,1.02-.72.15-1.1.61-1.45,1.16-.18.29-.16.42.11.65.17.15.33.31.5.47.4.34.58.35.95.01.2-.19.4-.38.58-.59.25-.29.54-.42.93-.5.89-.2,1.34-.9,1.6-1.71.12-.36-.3-.78-.89-.8Z"/>
      <path class="cls-12" d="M87.05,77.41c-.17-.06-.35-.14-.52-.13-.97.04-1.9-.12-2.83-.44-.41-.14-.9-.1-1.35-.09-.14,0-.28.21-.4.3.04.14.04.23.09.31.06.12.12.25.22.34.23.24.82.31.6.76-.17.34-.67.17-1.03.19-.27.02-.55.01-.82.03-.04,0-.07.05-.11.08.05.05.11.15.16.15.65,0,1.28,0,1.85.4.09.06.27.06.37,0,.36-.19.75-.37,1.03-.65.23-.22.44-.29.72-.29.46,0,.92.01,1.38,0,.35,0,.59-.22.78-.5.1-.14.04-.4-.13-.46Z"/>
      <path class="cls-13" d="M84.06,51.02c-.84-.49-1.75-.76-2.72-.84-.34-.03-.6-.14-.86-.36-.35-.29-.73-.55-1.1-.81-.36-.27-.77-.25-1.18-.15-.07.02-.11.13-.17.2.02.09.01.21.07.25.52.42.98.97,1.76.9.36-.03.63.12.83.39.78,1.08,2.04,1.31,3.16,1.8.16.07.44-.04.62-.15.18-.11.21-.57.07-.76-.13-.18-.29-.35-.48-.46Z"/>
      <path class="cls-5" d="M85.31,44.8c-.19-.23-.51-.19-.73.01-.13.12-.26.26-.37.4-.21.26-.26.5-.05.74.28.33.4.68.44,1.11.06.53.24,1.06.38,1.58.01.05.14.07.22.09.06-.06.18-.11.19-.18.04-.36.03-.73.1-1.09.1-.46.27-.84.87-.89.61-.06,1.11-.39,1.46-.91.1-.15,0-.41-.19-.42-.46-.02-.91-.05-1.37-.03-.4.02-.68-.11-.94-.42Z"/>
      <path class="cls-4" d="M92.59,54.36c-.23-.03-.46-.03-.44-.03-.33-.02-.43-.02-.52-.02-.83,0-1.45.42-1.78,1.22-.1.25-.2.51-.27.77-.04.15-.3.31-.06.45.14.08.37.09.53.04.56-.18,1.12-.39,1.66-.62.59-.24.88-.76,1.16-1.29.1-.19-.07-.5-.28-.53Z"/>
      <path class="cls-9" d="M77.78,29.59c.12.15.41.16.51.19.8,0,1.17-.6.88-1.22-.28-.61-.76-1.03-1.27-1.42-.1-.08-.25-.12-.38-.14-.27-.03-.55-.08-.78.13-.18.16-.25.59-.06.9.33.54.7,1.08,1.1,1.57Z"/>
      <path class="cls-8" d="M93.12,74.64s-.08-.03-.19-.07c-.23.16-.56.28-.73.53-.28.41-.48.88-.66,1.35-.13.34-.18.7-.24,1.06-.01.07.2.25.24.23.33-.15.67-.29.95-.52.36-.29.67-.63.97-.97.47-.54.31-1.29-.34-1.61Z"/>
      <path class="cls-14" d="M85.51,13.9c-.1.27-.06.54.18.74.03.03.08.05.12.05.03,0,.09-.03.09-.05.1-1.3.95-2.48.64-3.69,0-.52.02-.89,0-1.25,0-.11-.14-.3-.21-.3-.16,0-.38.06-.46.17-.18.26-.37.56-.4.85-.05.58-.12,1.21.04,1.75.17.6.23,1.14,0,1.72Z"/>
      <path class="cls-19" d="M92.25,39.89c.03-.11.01-.28-.06-.36-.08-.08-.25-.12-.36-.1-.61.13-1.03.57-1.45.99-.21.21-.4.31-.72.16-.19-.09-.47-.09-.67,0-.49.22-.96.5-1.43.76-.03.02-.04.08-.06.13.05.05.12.15.17.15.94-.13,1.9-.19,2.83-.35.73-.13,1.5-.51,1.75-1.37Z"/>
      <path class="cls-15" d="M90.93,32.57c-.02-.27-.4-.47-.62-.3-.24.2-.49.41-.66.66-.31.45-.56.93-.83,1.39-.08.15.05.37.24.39.04,0,.09.01.18.02.68-.03,1.39-.13,1.96-.65.26-.24.27-.45-.07-.63-.32-.17-.38-.32-.21-.62.04-.07.02-.18,0-.27Z"/>
      <path class="cls-18" d="M89.3,60.01c.06.06.16.06.24.09.08-.03.18-.04.25-.09.42-.34.85-.67,1.25-1.04.12-.11.19-.31.2-.47.02-.26-.19-.41-.4-.48-.16-.05-.35-.05-.53-.04-.22.02-.43.1-.65.11-.73.04-1.19.79-.82,1.41.11.19.29.34.45.5Z"/>
      <path class="cls-22" d="M90.88,42.97c-.17.07-.37.1-.49.22-.57.6-1.04,1.27-1.35,2.04-.1.24.04.44.27.56.2.1.38.26.62.07.71-.58,1.04-1.38,1.33-2.2.04-.12,0-.28-.05-.4-.06-.11-.19-.17-.33-.28Z"/>
      <path class="cls-16" d="M81.82,82.84c-1.36.35-2.74.16-4.11.23-.05,0-.1.1-.13.16,0,.02.04.08.08.1.79.4,1.61.65,2.52.63.67-.13,1.33-.26,2-.4.16-.03.22-.34.08-.46-.14-.11-.33-.3-.45-.27Z"/>
      <path class="cls-17" d="M91.1,71.91c.27-.15.56-.28.82-.46.07-.05.11-.31.06-.35-.31-.26-.65-.48-.98-.71-.03-.02-.09-.01-.13-.02-.04,0-.09,0-.13,0-.58.12-1.16.87-1.17,1.5,0,.27.24.44.45.3.34-.21.63-.56,1.09-.27Z"/>
      <path class="cls-21" d="M74.9,85.03c-.63-.07-1.28.01-1.89-.25-.15-.07-.45.18-.49.39-.02.08.02.22.06.24.7.33,1.43.55,2.1.73.22-.08.37-.1.47-.18.12-.11.28-.28.28-.42s-.17-.29-.29-.41c-.05-.06-.16-.09-.25-.1Z"/>
      <path class="cls-20" d="M91.32,73.75c-.3-.17-.7-.13-.85.1-.14.22-.22.47-.34.72.17.09.28.21.39.21.42,0,.81-.36.91-.81.01-.06-.05-.18-.11-.21Z"/>
    </g>
  </g>
  <g>
    <g>
      <path class="cls-34" d="M459.13,76.64h-4.63v-11.05h-8.34v11.28l-3,2.3,6.85,4.68,2.35-2.3h6.78v5.53h-14.61v4.91h3.45c-.13,5.3-.2,10.75-1.57,15.81-.58,2.07-2.22,4.91-3.26,6.67l1.04.54c2.22-1.99,4.5-3.99,6.72-6.06,2.35-2.3,4.18-5.68,4.57-9.29.32-2.53.26-5.14.39-7.68h3.26v21.26h9.13v-49.5h-9.13v12.89Z"/>
      <polygon class="cls-34" points="487.44 52.31 487.44 45.17 478.11 45.17 478.11 52.31 465.2 52.31 465.2 45.17 455.87 45.17 455.87 52.31 443.93 52.31 443.93 57.23 455.87 57.23 455.87 62.75 465.2 62.75 465.2 57.23 478.11 57.23 478.11 62.6 487.44 62.6 487.44 57.23 499.77 57.23 499.77 52.31 487.44 52.31"/>
      <polygon class="cls-34" points="489.13 64.05 479.74 64.05 479.74 76.48 470.35 76.48 470.35 81.32 479.74 81.32 479.74 106.8 473.42 106.8 473.42 111.71 495.2 111.71 495.2 106.8 489.13 106.8 489.13 81.32 498.66 81.32 498.66 76.48 489.13 76.48 489.13 64.05"/>
    </g>
    <g>
      <polygon class="cls-34" points="557.88 64.59 545.1 64.59 545.1 61.44 556.38 61.44 556.38 57.15 545.1 57.15 545.1 53.85 537.4 53.85 537.4 57.15 527.23 57.15 527.23 61.44 537.4 61.44 537.4 64.59 523.9 64.59 523.9 68.96 557.88 68.96 557.88 64.59"/>
      <path class="cls-34" d="M561.73,44.17l-2.93,3.53h-35.62v-2.38h-8.8v68.92h8.8v-3.3h35.94v3.3h8.74V49.85l3.07-2.69-9.2-2.99ZM559.12,106.34h-35.94v-9.21c2.55-1,5.22-1.77,7.76-2.84v9.82h6.78v-13.13c2.29-1.68,4.5-3.45,6.66-5.37l-9.07.07v-1.23h12.2v2h2.87c-1.17,2-2.54,3.84-3.85,5.6-2.61-.62-5.22-1.08-7.83-1.38l-.26.46c1.69.61,3.26,1.38,4.76,2.38,4.04,2.76,5.81,8.98,10.31,8.98,1.5,0,3.2-.77,3.2-2.84,0-3.68-4.24-5.37-6.52-6.45,2.81-1.53,5.68-3,8.42-4.76l-5.35-2h1.43v-12.05l2.81-2.68-7.82-1.84-2.35,2.45h-12v-1.69h-7.43v16.27h5.54c-2.93,3.61-6.72,6.13-10.24,8.67v-43.36h35.94v54.11ZM535.31,80.32v-3.99h12.26v3.99h-12.26Z"/>
    </g>
    <path class="cls-34" d="M160.97,102.5c3.09-4.4,4.93-13.28,5.35-18.93.29-3.99.35-7.96.48-11.95h-10.27v-4.62h49.28v4.62h-14.37v29.56c0,1.89.83,2.31,2.25,2.31,1.01,0,1.96-.14,2.97-.14.71,0,1.43-.07,2.13-.35,1.72-.77,3.51-9.16,3.98-11.05.47-1.81.95-3.63,1.37-5.51l1.18.27c-.35,1.89-.65,3.78-.95,5.66-.17,1.19-.65,3.5-.65,4.61,0,3.5,4.81,1.89,4.81,3.98,0,1.12-.83,3.08-1.24,3.98-1.13,2.45-2.79,4.05-5.17,4.47-.95.21-1.96.21-2.91.21-1.9.07-3.73.15-5.64.15h-.59c-1.73,0-3.51-.15-5.23-.36-1.54-.21-3.33-.69-4.1-2.51-.47-1.19-.88-2.52-.88-3.92v-31.37h-7.37c-.17,6.63-.23,13.34-2.13,19.57-1.07,3.49-3.27,6.98-5.34,9.78-3.27,4.4-7.95,7.68-12.47,10.14l-.54-.49c2.08-2.65,4.11-5.31,6.06-8.11ZM202.89,55.69h-43.23v-4.62h43.23v4.62Z"/>
    <path class="cls-34" d="M235.15,74.91v-4.82h-10.75v-4.82h10.75v-9.22c-3.45-.35-6.95-.77-10.39-1.61v-.9c5.94-.63,11.64-2.16,17.22-4.68l11.58,4.26c-3.21,1.4-6.53,2.38-9.98,2.73v9.5h8.61v4.75l-8.61.08v8.03c3.38,1.27,9.5,2.03,9.92,8.81.12,2.38-2.14,3.84-3.92,3.98-2.32.13-3.15-2.09-3.86-5.03-.48-1.96-1.24-3.42-2.14-5.17v30.4h-8.43v-19.16c-3.57,6.3-5.4,8.95-10.39,13.77l-.65-.41c2.61-5.94,3.74-9.29,4.99-15.87.41-2.38.77-4.75.77-7.2v-7.41h5.29ZM262.65,54.51v44.71h-7.9v-44.71h7.9ZM275.53,48.36l-.12,55.2v2.23c0,3.98-3.26,4.75-5.94,5.11-1.84.28-3.69.41-5.52.41-.35,0-1.3.08-1.61-.21-.29-.2-.29-1.05-.29-1.47-.06-1.05-.48-1.96-1.01-2.87-.88-1.6-4.69-2.3-6.17-2.57v-.91c2.97.27,6,.55,8.96.55,2.73,0,3.15-.14,3.15-3.35v-52.13h8.55Z"/>
    <path class="cls-34" d="M342.8,49.69l-3,3.37h-2.68l-.05.12h-31.77v-2.35h-9.33v59.81h9.33v-6.46h34.76v5.9h9.79v-55.02l2.41-2.92-9.46-2.45ZM340.05,77.03c-.82-.18-2.08-.48-2.64-.73-.85-.38-.42-3.02-.42-3.02l-.89-.14s-.54,5.53-.54,6.55-.72,2.29-1.17,2.29c-1.43,0-2.27-.42-2.27-2.32v-21.34h7.93v18.7ZM305.3,99.03v-40.71h6.05c.09,13.24-5.37,31.16-5.37,31.16l.59.46s5.15-3.35,8.5-9.22c5.04-8.82,5.24-20.96,5.25-22.41h3.08v24.37c0,1.41.42,1.54.89,2.74.78,1.83,2.58,2.31,4.13,2.53,1.73.21,3.53.36,5.27.36,2.95.15,5.37-.92,6.37-1.65v12.35h-34.76Z"/>
    <path class="cls-34" d="M425.89,61.71h-23.32v-7.05c7.16-.53,12.83-1.7,15.23-2.32l-11.42-6.6c-9.26,3.07-18.72,5.37-28.31,6.45v.85c5.1,1.22,10.26,1.7,15.17,1.82v6.85h-23.56v5.14h10.97c-2.67,4.89-6.49,9.42-10.68,12.32l.26,1c5.28-1.53,13.96-4.14,17.68-8.82,1.13-1.48,2.25-2.96,3.28-4.49h2.05v13.85h-11.36v5.14h17.95c-2.23,2.3-4.84,4.68-6.54,6.21h-23.6v5.14h23.78v5.06c0,1.09.07,2.57-1.74,2.57h-8.58s6,5.29,2.91,8.61c0,0,7.81.19,10.71-.7,6.1-1.88,6.03-6.16,6.03-7.91v-7.63h23.1v-5.14h-21.69c3.78-2.88,8.79-7.02,8.79-7.02l2.63-3.65-7.29-2.77-1.56,2.09h-4.21v-13.85h2.92l.56,1.8c2.09,6.75,8.61,10.51,13.96,12.82l.65-.46c-.13-.93-.39-1.92-.39-2.84,0-2.69,2.48-3.61,4.3-4.14l.13-.92c-6.6-1.17-10.13-2.6-15.4-6.25h16.59v-5.14Z"/>
  </g>
</svg>